<svg width="24" height="24" viewBox="0 0 24 24" fill="none" xmlns="http://www.w3.org/2000/svg">
<path d="M9.5 14.5C8.51109 14.5 7.54439 14.2068 6.72215 13.6573C5.8999 13.1079 5.25904 12.327 4.8806 11.4134C4.50216 10.4998 4.40315 9.49445 4.59607 8.52455C4.789 7.55464 5.2652 6.66373 5.96447 5.96447C6.66373 5.2652 7.55464 4.789 8.52455 4.59607C9.49445 4.40315 10.4998 4.50216 11.4134 4.8806C12.327 5.25904 13.1079 5.8999 13.6573 6.72215C14.2068 7.54439 14.5 8.51109 14.5 9.5" stroke="#005EB8"/>
<path d="M9 9L13.5828 20L15.2098 15.2098L20 13.5828L9 9Z" stroke="#005EB8" stroke-linecap="round" stroke-linejoin="round"/>
<path d="M15.4141 15.4336L19.4141 19.4336" stroke="#005EB8" stroke-linecap="round" stroke-linejoin="round"/>
</svg>
