<?xml version="1.0" encoding="UTF-8"?>
<svg width="50px" height="50px" viewBox="0 0 50 50" version="1.1" xmlns="http://www.w3.org/2000/svg" xmlns:xlink="http://www.w3.org/1999/xlink">
    <!-- Generator: Sketch 58 (84663) - https://sketch.com -->
    <title>analytices</title>
    <desc>Created with Sketch.</desc>
    <g id="Page-1" stroke="none" stroke-width="1" fill="none" fill-rule="evenodd">
        <g id="Apple-TV-Copy" transform="translate(-499.000000, -961.000000)" fill="#032DE2" fill-rule="nonzero">
            <g id="Group-4" transform="translate(54.500000, 961.000000)">
                <g id="Group-3" transform="translate(33.500000, 0.000000)">
                    <g id="analytices" transform="translate(411.000000, 0.000000)">
                        <path d="M29.0991211,0 C29.3257324,0 29.5441941,0.0788055422 29.7180004,0.221173287 L29.7896484,0.286035156 L39.1646484,9.66132811 C39.3248657,9.82163083 39.4236984,10.0318039 39.4459032,10.2553417 L39.4506836,10.3518554 L39.4506836,23.3398438 C39.4506836,23.8791016 39.0134766,24.3164062 38.4741211,24.3164062 C37.9617334,24.3164062 37.5415347,23.9217388 37.5007958,23.4199258 L37.4975586,23.3398438 L37.4975586,11.3284179 L31.0522461,11.3284179 C29.4772022,11.3284179 28.1884597,10.0790516 28.125007,8.51930717 L28.1225586,8.39873044 L28.1225586,1.953125 L2.9296875,1.953125 C2.41813477,1.953125 1.99718457,2.34849756 1.95636843,2.84971116 L1.953125,2.9296875 L1.953125,47.0703125 C1.953125,47.5818652 2.34849756,48.0028154 2.84971116,48.0436316 L2.9296875,48.046875 L11.328125,48.046875 L11.328125,40.2709961 C11.328125,39.7587012 11.7227043,39.3384189 12.2245922,39.2976714 L12.3046875,39.2944336 L18.5546875,39.2944336 C19.0670752,39.2944336 19.4872739,39.6891011 19.5280128,40.190914 L19.53125,40.2709961 L19.53125,48.046875 L21.484375,48.046875 L21.484375,34.6679688 C21.484375,34.1556738 21.8789543,33.7353916 22.3808422,33.6946441 L22.4609375,33.6914062 L28.7109375,33.6914062 C29.2233252,33.6914062 29.6435239,34.0860737 29.6842628,34.5878867 L29.6875,34.6679688 L29.6875,48.046875 L31.640625,48.046875 L31.640625,27.8320312 C31.640625,27.3197363 32.0352043,26.8994541 32.5370922,26.8587066 L32.6171875,26.8554688 L38.8671875,26.8554688 C39.3795752,26.8554688 39.7997739,27.2501362 39.8405128,27.7519492 L39.84375,27.8320312 L39.84375,48.046875 L41.796875,48.046875 L41.796875,33.6180664 C41.796875,33.0788086 42.2340821,32.6415039 42.7734375,32.6415039 C43.2858252,32.6415039 43.7060239,33.0361714 43.7467628,33.5379843 L43.75,33.6180664 L43.75,48.046875 L48.046875,48.046875 L48.046875,22.3387696 L43.75,22.3387696 L43.75,26.2938477 C43.75,26.8331054 43.3127929,27.2704102 42.7734375,27.2704102 C42.2610498,27.2704102 41.8408511,26.8757427 41.8001122,26.3739298 L41.796875,26.2938477 L41.796875,21.3622071 C41.796875,20.8499121 42.1914543,20.4296299 42.6933422,20.3888824 L42.7734375,20.3856446 L49.0234375,20.3856446 C49.5358252,20.3856446 49.9560239,20.780312 49.9967628,21.2821249 L50,21.3622071 L50,49.0234375 C50,49.5357324 49.6054207,49.9560147 49.1035328,49.9967621 L49.0234375,50 L2.9296875,50 C1.35464356,50 0.0659011228,48.7506337 0.00244840393,47.1908892 L0,47.0703125 L0,2.9296875 C0,1.35464356 1.24936633,0.0659011228 2.8091108,0.00244840393 L2.9296875,0 L29.0991211,0 Z M17.578125,41.2475586 L13.28125,41.2475586 L13.28125,48.046875 L17.578125,48.046875 L17.578125,41.2475586 Z M27.734375,35.6445312 L23.4375,35.6445312 L23.4375,48.046875 L27.734375,48.046875 L27.734375,35.6445312 Z M37.890625,28.8085938 L33.59375,28.8085938 L33.59375,48.046875 L37.890625,48.046875 L37.890625,28.8085938 Z M6.25,33.4472656 L12.5,33.4472656 C13.0393554,33.4472656 13.4765625,33.8845703 13.4765625,34.4238281 C13.4765625,34.9361231 13.0819832,35.3564053 12.5800953,35.3971528 L12.5,35.4003906 L6.25,35.4003906 C5.71064456,35.4003906 5.2734375,34.9630859 5.2734375,34.4238281 C5.2734375,33.9115332 5.66801683,33.491251 6.16990467,33.4505035 L6.25,33.4472656 L12.5,33.4472656 L6.25,33.4472656 Z M17.390625,33.4472656 C17.6474609,33.4472656 17.8994141,33.5517578 18.0810547,33.7333984 C18.2626953,33.9150391 18.3671875,34.1669922 18.3671875,34.4238281 C18.3671875,34.6806641 18.2626953,34.9326172 18.0810547,35.1141602 C17.8994141,35.2958984 17.6474609,35.4003906 17.390625,35.4003906 C17.1328125,35.4003906 16.8818359,35.2958008 16.7001953,35.1141602 C16.5175781,34.9326172 16.4140625,34.6806641 16.4140625,34.4238281 C16.4140625,34.1669922 16.5175781,33.9150391 16.7001953,33.7333984 C16.8818359,33.5516602 17.1328125,33.4472656 17.390625,33.4472656 Z M42.7734375,28.7978516 C43.0302734,28.7978516 43.2822266,28.9014648 43.4638672,29.0839844 C43.6455078,29.265625 43.75,29.5175781 43.75,29.7744141 C43.75,30.03125 43.6455078,30.2832031 43.4638672,30.4648438 C43.2822266,30.6464844 43.0302734,30.7509766 42.7734375,30.7509766 C42.5166016,30.7509766 42.2646484,30.6463867 42.0830078,30.4648438 C41.9013672,30.2832031 41.796875,30.03125 41.796875,29.7744141 C41.796875,29.5175781 41.9013672,29.265625 42.0830078,29.0839844 C42.2646484,28.9014648 42.5166016,28.7978516 42.7734375,28.7978516 Z M24.9023438,28.7353516 C25.4416992,28.7353516 25.8789062,29.1726563 25.8789062,29.7119141 C25.8789062,30.224209 25.4843269,30.6444912 24.9824391,30.6852387 L24.9023438,30.6884766 L6.25,30.6884766 C5.71064456,30.6884766 5.2734375,30.2511719 5.2734375,29.7119141 C5.2734375,29.1996192 5.66801683,28.7793369 6.16990467,28.7385894 L6.25,28.7353516 L24.9023438,28.7353516 Z M14.2165039,5.34462891 C20.6471679,5.34462891 25.8789062,10.5763672 25.8789062,17.0071289 C25.8789062,17.5194238 25.4843269,17.9397061 24.9824391,17.9804536 L24.9023437,17.9836914 L23.1457031,17.9836914 C22.6577148,22.4790039 18.8393554,25.9890625 14.2165039,25.9890625 C9.26386717,25.9890625 5.23457031,21.9597656 5.23457031,17.0071289 C5.23457031,12.4467483 8.6504985,8.66926378 13.0582488,8.09953128 L13.2399414,8.07792967 L13.2399414,6.32119139 C13.2399414,5.78193361 13.6771484,5.34462891 14.2165039,5.34462891 Z M13.2399414,10.0458984 C9.82490233,10.5227539 7.18769533,13.4627929 7.18769533,17.0070313 C7.18769533,20.8827148 10.3408203,24.0358398 14.2165039,24.0358398 C17.7026399,24.0358398 20.6042242,21.4843899 21.1522071,18.1509112 L21.1776367,17.9835938 L14.2165039,17.9835938 C13.7041162,17.9835938 13.2839175,17.5889263 13.2431786,17.0871133 L13.2399414,17.0070313 L13.2399414,10.0458984 Z M15.1930664,7.34648439 L15.1930664,16.0305664 L23.8770508,16.0305664 C23.4178711,11.4551758 19.7684571,7.80566406 15.1930664,7.34648439 Z M30.0756836,3.33427734 L30.0756836,8.39873044 C30.0756836,8.91028322 30.470968,9.33123339 30.9722566,9.37204956 L31.0522461,9.37529294 L36.1166016,9.37529294 L30.0756836,3.33427734 Z" id="Combined-Shape"></path>
                    </g>
                </g>
            </g>
        </g>
    </g>
</svg>