<?xml version="1.0" encoding="UTF-8"?>
<svg width="50px" height="42px" viewBox="0 0 50 42" version="1.1" xmlns="http://www.w3.org/2000/svg" xmlns:xlink="http://www.w3.org/1999/xlink">
    <!-- Generator: Sketch 58 (84663) - https://sketch.com -->
    <title>blockchain</title>
    <desc>Created with Sketch.</desc>
    <g id="Page-1" stroke="none" stroke-width="1" fill="none" fill-rule="evenodd">
        <g id="Apple-TV-Copy" transform="translate(-1571.000000, -969.000000)" fill="#032DE2" fill-rule="nonzero">
            <g id="Group-4" transform="translate(54.500000, 961.000000)">
                <g id="Group-3" transform="translate(33.500000, 0.000000)">
                    <g id="blockchain" transform="translate(1483.000000, 8.000000)">
                        <path d="M25.7675438,7.10542736e-15 L25.7675438,9.2269737 L34.0953947,13.1578947 L34.0953947,21.6063596 L42.2149123,25.4440789 L42.2149123,34.6326754 L39.9780702,35.685307 L49.9945176,40.3892544 L49.5285088,41.3815789 L38.6842105,36.2938596 L33.4429825,38.7554825 L25.2192982,34.9177631 L16.995614,38.7554825 L11.754386,36.2938596 L0.910087718,41.3815789 L0.444078947,40.3892544 L10.4605263,35.685307 L8.22368421,34.6326754 L8.22368421,25.4440789 L16.5515351,21.5350877 L16.5515351,13.1578947 L24.6710526,9.32017542 L24.6710526,7.10542736e-15 L25.7675438,7.10542736e-15 Z M41.1184211,26.6611842 L33.9912281,30.0054825 L33.9912281,37.2807018 L41.1184211,33.9364035 L41.1184211,26.6611842 Z M24.6710526,26.6611842 L17.5438596,30.0054825 L17.5438596,37.2807018 L24.6710526,33.9364035 L24.6710526,26.6611842 Z M9.32017542,26.6611842 L9.32017542,33.9364035 L16.4473684,37.2807018 L16.4473684,30.0054825 L9.32017542,26.6611842 Z M25.7675438,26.6611842 L25.7675438,33.9364035 L32.8947369,37.2807018 L32.8947369,30.0054825 L25.7675438,26.6611842 Z M40.4002193,31.6282895 L40.4002193,32.8125 L35.0548246,35.2028509 L35.0548246,34.002193 L40.4002193,31.6282895 Z M10.0383772,31.6282895 L15.3837719,34.002193 L15.3837719,35.2028509 L10.0383772,32.8125 L10.0383772,31.6282895 Z M30.4166667,30.1370614 L31.3486842,30.7182018 L29.1173246,34.3037281 L27.3135965,32.1929825 L28.1469298,31.4802631 L28.9802631,32.4506579 L30.4166667,30.1370614 Z M22.5548246,29.5723684 L23.4649123,30.1864035 L20.7565789,34.1611842 L18.9747807,32.8179825 L19.6381579,31.9462719 L20.4989035,32.5932018 L22.5548246,29.5723684 Z M40.4002193,29.8355263 L40.4002193,31.0361842 L35.0548246,33.4265351 L35.0548246,32.2258772 L40.4002193,29.8355263 Z M10.0383772,29.8355263 L15.3837719,32.2258772 L15.3837719,33.4265351 L10.0383772,31.0361842 L10.0383772,29.8355263 Z M40.4002193,28.0537281 L40.4002193,29.254386 L35.0548246,31.6282895 L35.0548246,30.4440789 L40.4002193,28.0537281 Z M10.0383772,28.0537281 L15.3837719,30.4440789 L15.3837719,31.6282895 L10.0383772,29.254386 L10.0383772,28.0537281 Z M16.995614,22.5383772 L10.0548246,25.7949562 L16.995614,29.0570175 L23.9309211,25.7949562 L16.995614,22.5383772 Z M33.5471491,22.5877193 L26.6118421,25.8442982 L33.4429825,29.0570175 L40.3837719,25.7949562 L33.5471491,22.5877193 Z M17.6480263,14.3585526 L17.6480263,21.6282895 L24.7752193,24.9780702 L24.7752193,17.7028509 L17.6480263,14.3585526 Z M32.9989035,14.3585526 L25.8717105,17.7028509 L25.8717105,24.879386 L32.9989035,21.5350877 L32.9989035,14.3585526 Z M18.3662281,19.3256579 L23.7116228,21.6995614 L23.7116228,22.9002193 L18.3662281,20.5098684 L18.3662281,19.3256579 Z M30.8826754,17.2642544 L31.7872807,17.8837719 L29.0789474,21.8585526 L27.3026316,20.5153509 L27.9605263,19.6436404 L28.8212719,20.2905702 L30.8826754,17.2642544 Z M18.3662281,17.5274123 L23.7116228,19.9177631 L23.7116228,21.1184211 L18.3662281,18.7280702 L18.3662281,17.5274123 Z M18.3662281,15.7510965 L23.7116228,18.1414474 L23.7116228,19.3256579 L18.3662281,16.9517544 L18.3662281,15.7510965 Z M25.7675438,10.4166667 L25.7675438,13.7061404 L24.6710526,13.7061404 L24.6710526,10.5372807 L18.3826754,13.4923246 L25.3234649,16.7489035 L32.2587719,13.4703947 L25.7675438,10.4166667 Z" id="Combined-Shape"></path>
                    </g>
                </g>
            </g>
        </g>
    </g>
</svg>