<?xml version="1.0" encoding="UTF-8"?>
<svg width="50px" height="50px" viewBox="0 0 50 50" version="1.1" xmlns="http://www.w3.org/2000/svg" xmlns:xlink="http://www.w3.org/1999/xlink">
    <!-- Generator: Sketch 58 (84663) - https://sketch.com -->
    <title>bug</title>
    <desc>Created with Sketch.</desc>
    <g id="Page-1" stroke="none" stroke-width="1" fill="none" fill-rule="evenodd">
        <g id="Apple-TV-Copy" transform="translate(-926.000000, -961.000000)" fill="#032DE2" fill-rule="nonzero">
            <g id="Group-4" transform="translate(54.500000, 961.000000)">
                <g id="Group-3" transform="translate(33.500000, 0.000000)">
                    <g id="bug" transform="translate(838.000000, 0.000000)">
                        <path d="M47.5,0 C48.8761905,0 49.9378231,1.02231293 49.9973644,2.37940525 L50,2.5 L50,49.1666667 C50,49.6372549 49.7047289,49.9602076 49.2531379,49.9965737 L49.1666667,50 L0.833333333,50 C0.362745098,50 0.0397923876,49.7047289 0.00342628401,49.2531379 L0,49.1666667 L0,2.5 C0,1.12380952 1.02231293,0.0621768706 2.37940525,0.00263556851 L2.5,0 L47.5,0 Z M41.6666667,37.5 L35,37.5 L35,40 L38.3333333,40 L38.3333333,41.6666667 L35,41.6666667 L35,44.1666667 L38.3333333,44.1666667 L38.3333333,45.8333333 L35,45.8333333 L35,48.3333333 L41.6666667,48.3333333 L41.6666667,37.5 Z M48.3333333,8.33333333 L1.66666667,8.33333333 L1.66666667,48.3333333 L33.3333333,48.3333333 L33.3333333,37.5 L31.6666667,37.5 C31.1960784,37.5 30.8731257,37.2047289 30.8367596,36.7531379 L30.8333333,36.6666667 L30.8333333,32.5 C30.8333333,32.0294118 31.1286044,31.7064591 31.5801954,31.6700929 L31.6666667,31.6666667 L35.8333333,31.6666667 L35.8333333,20 L34.1666667,20 C33.6960784,20 33.3731257,19.7047289 33.3367596,19.2531379 L33.3333333,19.1666667 L33.3333333,11.6666667 C33.3333333,11.1960784 33.6286044,10.8731257 34.0801954,10.8367596 L34.1666667,10.8333333 L42.5,10.8333333 C42.9705882,10.8333333 43.2935409,11.1286044 43.3299071,11.5801954 L43.3333333,11.6666667 L43.3333333,19.1666667 C43.3333333,19.6372549 43.0380623,19.9602076 42.5864713,19.9965737 L42.5,20 L40.8333333,20 L40.8333333,31.6666667 L45,31.6666667 C45.4705882,31.6666667 45.7935409,31.9619377 45.8299071,32.4135287 L45.8333333,32.5 L45.8333333,36.6666667 C45.8333333,37.1372549 45.5380623,37.4602076 45.0864713,37.4965737 L45,37.5 L43.3333333,37.5 L43.3333333,48.3333333 L48.3333333,48.3333333 L48.3333333,8.33333333 Z M20.8333333,10.8333333 C25.3586498,10.8333333 29.0715964,14.4889975 29.16487,19.0732312 L29.1666667,19.25 L29.1666667,27.5833333 C29.1666667,31.7726191 25.9278912,35.3141497 21.8447206,35.8135447 L21.6666667,35.8333333 L21.6666667,38.4166667 C21.6666667,39.4583333 21.0502958,40.3459073 20.1879694,40.7089734 L20.0833333,40.75 L23.0833333,43.75 L21.9166667,44.9166667 L17.9166667,40.9166667 L15.25,40.9166667 L11.3333333,44.8333333 L10.1666667,43.6666667 L13.1666667,40.6666667 C12.2881944,40.2673611 11.7158565,39.4853877 11.6696868,38.4674358 L11.6666667,38.3333333 L11.6666667,35.75 C7.55952383,35.3392857 4.26207483,31.9327041 4.16870019,27.6851975 L4.16666667,27.5 L4.16666667,19.1666667 C4.16666667,14.6413502 7.82233083,10.9284036 12.3263558,10.83513 L12.5,10.8333333 L20.8333333,10.8333333 Z M20,35.8333333 L13.3333333,35.8333333 L13.3333333,38.3333333 C13.3333333,38.8039216 13.6286044,39.1268743 14.0801954,39.1632404 L14.1666667,39.1666667 L19.1666667,39.1666667 C19.6372549,39.1666667 19.9602076,38.8713956 19.9965737,38.4198046 L20,38.3333333 L20,35.8333333 Z M44.1666667,33.3333333 L32.5,33.3333333 L32.5,35.8333333 L44.1666667,35.8333333 L44.1666667,33.3333333 Z M20.8333333,12.5 L12.5,12.5 C8.88974361,12.5 5.92579883,15.4084024 5.835455,18.9979178 L5.83333333,19.1666667 L5.83333333,27.5 C5.83333333,31.1102564 8.74173572,34.0742012 12.3312511,34.164545 L12.5,34.1666667 L15.8333333,34.1666667 L15.8333333,19.1666667 L17.5,19.1666667 L17.5,34.1666667 L20.8333333,34.1666667 C24.4435897,34.1666667 27.4075345,31.2582643 27.4978783,27.6687489 L27.5,27.5 L27.5,19.1666667 C27.5,15.5 24.5,12.5 20.8333333,12.5 Z M41.6666667,12.5 L35,12.5 L35,18.3333333 L36.6666667,18.3333333 C37.1372549,18.3333333 37.4602076,18.6286044 37.4965737,19.0801954 L37.5,19.1666667 L37.5,31.6666667 L39.1666667,31.6666667 L39.1666667,19.1666667 C39.1666667,18.6960784 39.4619377,18.3731257 39.9135287,18.3367596 L40,18.3333333 L41.6666667,18.3333333 L41.6666667,12.5 Z M24.1666667,29.1666667 L24.1666667,30.8333333 L21.6666667,30.8333333 L21.6666667,29.1666667 L24.1666667,29.1666667 Z M11.6666667,29.1666667 L11.6666667,30.8333333 L9.16666667,30.8333333 L9.16666667,29.1666667 L11.6666667,29.1666667 Z M21.6666667,25.8333333 L21.6666667,27.5 L19.1666667,27.5 L19.1666667,25.8333333 L21.6666667,25.8333333 Z M14.1666667,22.5 L14.1666667,24.1666667 L11.6666667,24.1666667 L11.6666667,22.5 L14.1666667,22.5 Z M25.8333333,20 L25.8333333,21.6666667 L23.3333333,21.6666667 L23.3333333,20 L25.8333333,20 Z M10,20 L10,21.6666667 L7.5,21.6666667 L7.5,20 L10,20 Z M20.8333333,15.8333333 L20.8333333,17.5 L18.3333333,17.5 L18.3333333,15.8333333 L20.8333333,15.8333333 Z M15,15.8333333 L15,17.5 L12.5,17.5 L12.5,15.8333333 L15,15.8333333 Z M47.5,1.66666667 L2.5,1.66666667 C2.02941177,1.66666667 1.70645906,1.96193772 1.67009295,2.41352873 L1.66666667,2.5 L1.66666667,6.66666667 L48.3333333,6.66666667 L48.3333333,2.5 C48.3333333,2 48,1.66666667 47.5,1.66666667 Z M7.5,3.33333333 L7.5,5 L4.16666667,5 L4.16666667,3.33333333 L7.5,3.33333333 Z M13.3333333,3.33333333 L13.3333333,5 L10,5 L10,3.33333333 L13.3333333,3.33333333 Z" id="Combined-Shape"></path>
                    </g>
                </g>
            </g>
        </g>
    </g>
</svg>