<?xml version="1.0" encoding="UTF-8"?>
<svg width="50px" height="50px" viewBox="0 0 50 50" version="1.1" xmlns="http://www.w3.org/2000/svg" xmlns:xlink="http://www.w3.org/1999/xlink">
    <!-- Generator: Sketch 58 (84663) - https://sketch.com -->
    <title>cloud</title>
    <desc>Created with Sketch.</desc>
    <g id="Page-1" stroke="none" stroke-width="1" fill="none" fill-rule="evenodd">
        <g id="Apple-TV-Copy" transform="translate(-1360.000000, -961.000000)" fill="#032DE2" fill-rule="nonzero">
            <g id="Group-4" transform="translate(54.500000, 961.000000)">
                <g id="Group-3" transform="translate(33.500000, 0.000000)">
                    <g id="cloud" transform="translate(1272.000000, 0.000000)">
                        <path d="M39.0892932,41.5924117 C40.4277844,41.5924117 41.5200573,42.6464419 41.5813802,43.9697709 L41.5840956,44.0872141 L41.5840956,47.4136174 C41.5840956,48.7521087 40.5300653,49.8443816 39.2067364,49.9057046 L39.0892932,49.9084199 L10.8148649,49.9084199 C9.47637361,49.9084199 8.38410072,48.8543897 8.32277778,47.5310607 L8.32006239,47.4136174 L8.32006239,44.0872141 C8.32006239,42.7487229 9.37409267,41.65645 10.6974216,41.5951271 L10.8148649,41.5924117 L39.0892932,41.5924117 Z M39.0892932,43.2556133 L10.8148649,43.2556133 C10.3826281,43.2556133 10.0273706,43.5854452 9.98707117,44.0071299 L9.98326406,44.0872141 L9.98326406,47.4136174 C9.98326406,47.8458542 10.3130959,48.2011118 10.7347807,48.2414112 L10.8148649,48.2452183 L39.0892932,48.2452183 C39.5215299,48.2452183 39.8767875,47.9153864 39.9170868,47.4937017 L39.9208939,47.4136174 L39.9208939,44.0872141 C39.9208939,43.6279626 39.5485447,43.2556133 39.0892932,43.2556133 Z M36.7824324,44.1387107 C37.6725572,44.1332641 38.3985447,44.8503118 38.4041168,45.7403327 C38.4095634,46.6304574 37.6925156,47.3564449 36.8023908,47.3619581 C35.9100832,47.3633056 35.1849272,46.6426196 35.1807692,45.7503118 C35.1807692,44.8641372 35.8962578,44.1442827 36.7824324,44.1387107 Z M28.1121622,44.9188149 C28.5715177,44.9188149 28.943763,45.2911642 28.943763,45.7504158 C28.943763,46.1826526 28.6139311,46.5379101 28.1922463,46.5782095 L28.1121622,46.5820166 L12.3117464,46.5820166 C11.8524948,46.5820166 11.4801456,46.2096673 11.4801456,45.7504158 C11.4801456,45.3181791 11.8099774,44.9629214 12.2316622,44.9226221 L12.3117464,44.9188149 L28.1121622,44.9188149 Z M33.2472973,44.9188149 C33.7066528,44.9188149 34.0788981,45.2911642 34.0788981,45.7504158 C34.0788981,46.1826526 33.7490662,46.5379101 33.3273815,46.5782095 L33.2472973,46.5820166 L31.0352391,46.5820166 C30.5759875,46.5820166 30.2036383,46.2096673 30.2036383,45.7504158 C30.2036383,45.3181791 30.5334701,44.9629214 30.9551549,44.9226221 L31.0352391,44.9188149 L33.2472973,44.9188149 Z M36.8023908,45.6988566 L36.7608108,45.7504158 C36.7608108,45.7691268 36.7701663,45.7892412 36.785369,45.7981289 L36.8023908,45.8028067 L36.8023908,45.6988566 Z M39.0892932,31.6132017 C40.4277844,31.6132017 41.5200573,32.6672319 41.5813802,33.9905609 L41.5840956,34.1080042 L41.5840956,37.4344075 C41.5840956,38.7728987 40.5300653,39.8651716 39.2067364,39.9264946 L39.0892932,39.92921 L10.8148649,39.92921 C9.47637361,39.92921 8.38410072,38.8751797 8.32277778,37.5518507 L8.32006239,37.4344075 L8.32006239,34.1080042 C8.32006239,32.7695129 9.37409267,31.67724 10.6974216,31.6159171 L10.8148649,31.6132017 L39.0892932,31.6132017 Z M39.0892932,33.2764033 L10.8148649,33.2764033 C10.3826281,33.2764033 10.0273706,33.6062352 9.98707117,34.0279199 L9.98326406,34.1080042 L9.98326406,37.4344075 C9.98326406,37.8666442 10.3130959,38.2219018 10.7347807,38.2622012 L10.8148649,38.2660083 L39.0892932,38.2660083 C39.5215299,38.2660083 39.8767875,37.9361764 39.9170868,37.5144917 L39.9208939,37.4344075 L39.9208939,34.1080042 C39.9208939,33.6487526 39.5485447,33.2764033 39.0892932,33.2764033 Z M36.7824324,34.1595007 C37.6725572,34.1540541 38.3985447,34.8711019 38.4041168,35.7611227 C38.4095634,36.6512474 37.6925156,37.3772349 36.8023908,37.3827481 C35.9100832,37.3840956 35.1849272,36.6634096 35.1807692,35.7711019 C35.1807692,34.8849272 35.8962578,34.1650728 36.7824324,34.1595007 Z M28.1121622,34.939605 C28.5715177,34.939605 28.943763,35.3119543 28.943763,35.7712058 C28.943763,36.2034426 28.6139311,36.5587002 28.1922463,36.5989996 L28.1121622,36.6028067 L12.3117464,36.6028067 C11.8524948,36.6028067 11.4801456,36.2304574 11.4801456,35.7712058 C11.4801456,35.3389691 11.8099774,34.9837115 12.2316622,34.9434121 L12.3117464,34.939605 L28.1121622,34.939605 Z M33.2472973,34.939605 C33.7066528,34.939605 34.0788981,35.3119543 34.0788981,35.7712058 C34.0788981,36.2034426 33.7490662,36.5587002 33.3273815,36.5989996 L33.2472973,36.6028067 L31.0352391,36.6028067 C30.5759875,36.6028067 30.2036383,36.2304574 30.2036383,35.7712058 C30.2036383,35.3389691 30.5334701,34.9837115 30.9551549,34.9434121 L31.0352391,34.939605 L33.2472973,34.939605 Z M36.8023908,35.7196466 L36.7608108,35.7712058 C36.7608108,35.7899168 36.7701663,35.8100312 36.785369,35.8189189 L36.8023908,35.8235967 L36.8023908,35.7196466 Z M39.0892932,21.6339917 C40.4277844,21.6339917 41.5200573,22.688022 41.5813802,24.0113509 L41.5840956,24.1287942 L41.5840956,27.4551975 C41.5840956,28.7936887 40.5300653,29.8859617 39.2067364,29.9472846 L39.0892932,29.95 L10.8148649,29.95 C9.47637361,29.95 8.38410072,28.8959697 8.32277778,27.5726407 L8.32006239,27.4551975 L8.32006239,24.1287942 C8.32006239,22.7903029 9.37409267,21.6980301 10.6974216,21.6367071 L10.8148649,21.6339917 L39.0892932,21.6339917 Z M39.0892932,23.2971933 L10.8148649,23.2971933 C10.3826281,23.2971933 10.0273706,23.6270252 9.98707117,24.04871 L9.98326406,24.1287942 L9.98326406,27.4551975 C9.98326406,27.8874343 10.3130959,28.2426918 10.7347807,28.2829912 L10.8148649,28.2867983 L39.0892932,28.2867983 C39.5215299,28.2867983 39.8767875,27.9569664 39.9170868,27.5352817 L39.9208939,27.4551975 L39.9208939,24.1287942 C39.9208939,23.6695426 39.5485447,23.2971933 39.0892932,23.2971933 Z M38.1429314,25.5649688 C38.2194387,25.985447 38.122869,26.4190229 37.8751559,26.7674636 C37.6274428,27.1223493 37.2468815,27.3622661 36.8198544,27.4327443 C36.7302495,27.4476092 36.639605,27.4550936 36.5487526,27.4551975 C35.7621622,27.4544698 35.0886694,26.8912682 34.9487526,26.1171518 C34.8731809,25.6968815 34.9696466,25.2639293 35.2165281,24.9154886 C35.4623701,24.5683992 35.8345114,24.3313929 36.2531185,24.2555093 C37.1365904,24.0952183 37.9826403,24.6814969 38.1429314,25.5649688 Z M27.945842,24.960395 C28.4051975,24.960395 28.7774428,25.3327443 28.7774428,25.7919958 C28.7774428,26.2242326 28.4476109,26.5794902 28.0259262,26.6197896 L27.945842,26.6235967 L12.1454262,26.6235967 C11.6861746,26.6235967 11.3138254,26.2512474 11.3138254,25.7919958 C11.3138254,25.3597591 11.6436572,25.0045015 12.065342,24.9642021 L12.1454262,24.960395 L27.945842,24.960395 Z M32.7159044,24.960395 C33.1752599,24.960395 33.5475052,25.3327443 33.5475052,25.7919958 C33.5475052,26.2242326 33.2176733,26.5794902 32.7959886,26.6197896 L32.7159044,26.6235967 L30.5038462,26.6235967 C30.0445946,26.6235967 29.6722453,26.2512474 29.6722453,25.7919958 C29.6722453,25.3597591 30.0020772,25.0045015 30.4237619,24.9642021 L30.5038462,24.960395 L32.7159044,24.960395 Z M36.543763,25.7919958 L36.5063409,25.8576923 C36.5075883,25.87079 36.5093036,25.8857588 36.5258706,25.8924246 L36.547921,25.8959459 L36.543763,25.7919958 Z M42.2901247,11.4468815 C42.289605,11.8863826 42.2618503,12.3255717 42.2069647,12.7616424 C42.7855509,12.5786902 43.3888773,12.4858628 43.9957381,12.4863826 C47.2107068,12.4863826 49.8169439,15.0926196 49.8169439,18.3074844 C49.8169439,21.5224532 47.2107068,24.1287942 43.9957381,24.1287942 C43.5364865,24.1287942 43.1641372,23.7563409 43.1641372,23.2970894 C43.1641372,22.8378378 43.5364865,22.4654886 43.9957381,22.4654886 C46.2920998,22.4654886 48.1537422,20.6038462 48.1537422,18.3074844 C48.1537422,16.0111227 46.2920998,14.1494802 43.9957381,14.1494802 C43.1155925,14.1492723 42.2568607,14.4214137 41.537526,14.9286902 C41.3338877,15.0712058 41.0772349,15.1151767 40.8378378,15.0486487 C40.3953222,14.9256757 40.1363826,14.4672557 40.2593555,14.0247401 C40.495842,13.1857588 40.6175676,12.3185031 40.6211019,11.4467776 C40.5335759,7.07349272 37.6070686,3.26746362 33.4031185,2.05935551 C28.1084199,0.537733888 22.5826403,3.59646569 21.0610187,8.89126817 C21.0277547,9.01122661 20.9680873,9.12224533 20.8862786,9.21600833 C20.5845114,9.56216217 20.0591476,9.59812889 19.7129938,9.29625778 C18.7046778,8.4093555 17.4092516,7.91777544 16.0664241,7.912474 C13.0527027,7.88617461 10.5862786,10.304158 10.5529106,13.3178794 C10.5568607,14.0015593 10.6935551,14.6779626 10.9554054,15.3095634 C11.1040541,15.6776507 10.9718295,16.0993763 10.6397089,16.3167359 C10.2554054,16.5681913 9.74002078,16.4606029 9.48846156,16.0762994 C8.73814967,14.8968815 7.44542622,14.1733888 6.04771311,14.1506237 C3.75155925,14.1133056 1.85997921,15.9443867 1.82266112,18.2405406 C1.78534303,20.5366944 3.61642412,22.4282744 5.91257794,22.4655925 C6.3718295,22.4655925 6.74417878,22.8379418 6.74417878,23.2971933 C6.74417878,23.7564449 6.3718295,24.1287942 5.91257794,24.1287942 C2.69760915,24.1287942 0.0913721411,21.5225572 0.0913721411,18.3075883 C0.0913721411,15.0926196 2.69760915,12.4863826 5.91257794,12.4863826 C6.95852389,12.4846154 7.98638256,12.7592516 8.89220372,13.2822246 C8.91652806,11.9936591 9.28783783,10.735447 9.96704783,9.64012472 C12.0533264,6.27546778 16.4722453,5.23908524 19.8369023,7.32546778 C21.5767152,2.96777547 25.7623701,0.0804573806 30.4537422,0.00166320166 C36.8828482,-0.106340956 42.1821206,5.01787942 42.2901247,11.4468815 Z M18.8240606,11.0097749 L18.8872141,11.0668399 L21.3820166,13.5616424 C21.6932432,13.8838877 21.6932432,14.3948025 21.3820166,14.7170478 C21.0829327,15.0267542 20.6014894,15.0541507 20.2702744,14.7934987 L20.2061331,14.737526 L19.1308732,13.6622661 L19.1308732,19.1391892 C19.1308732,19.5984407 18.7585239,19.97079 18.2992723,19.97079 C17.8670356,19.97079 17.511778,19.6409582 17.4714786,19.2192734 L17.4676715,19.1391892 L17.4676715,13.6622661 L16.3924117,14.737526 C16.0701663,15.0487526 15.5592516,15.0487526 15.2370062,14.737526 C14.9272999,14.4384421 14.8999033,13.9569988 15.1605553,13.6257838 L15.2165281,13.5616424 L17.7113306,11.0668399 C18.0157744,10.7624935 18.4974613,10.7434718 18.8240606,11.0097749 Z M31.6048857,10.8231809 C32.0641372,10.8231809 32.4364865,11.1955302 32.4364865,11.6547817 L32.4364865,11.6547817 L32.4364865,17.1317048 L33.5117464,16.0564449 C33.8340956,15.7452183 34.3450104,15.7452183 34.6672557,16.0564449 C34.9976092,16.3754678 35.0067568,16.9019751 34.6876299,17.2323285 L34.6876299,17.2323285 L32.1928274,19.727131 C31.8680873,20.0517672 31.341684,20.0517672 31.0169439,19.727131 L31.0169439,19.727131 L28.5221414,17.2323285 C28.2109148,16.9099792 28.2109148,16.3990644 28.5221414,16.0768191 C28.8412682,15.7464657 29.3676715,15.7373181 29.6980249,16.0564449 L29.6980249,16.0564449 L30.7732848,17.1317048 L30.7732848,11.6547817 C30.7732848,11.1955302 31.1456341,10.8231809 31.6048857,10.8231809 Z" id="Combined-Shape"></path>
                    </g>
                </g>
            </g>
        </g>
    </g>
</svg>