<?xml version="1.0" encoding="UTF-8"?>
<svg width="40px" height="50px" viewBox="0 0 40 50" version="1.1" xmlns="http://www.w3.org/2000/svg" xmlns:xlink="http://www.w3.org/1999/xlink">
    <!-- Generator: Sketch 58 (84663) - https://sketch.com -->
    <title>iot</title>
    <desc>Created with Sketch.</desc>
    <g id="Page-1" stroke="none" stroke-width="1" fill="none" fill-rule="evenodd">
        <g id="Apple-TV-Copy" transform="translate(-1788.000000, -961.000000)" fill="#032DE2" fill-rule="nonzero">
            <g id="Group-4" transform="translate(54.500000, 961.000000)">
                <g id="Group-3" transform="translate(33.500000, 0.000000)">
                    <g id="iot" transform="translate(1700.000000, 0.000000)">
                        <path d="M31.3188307,34.5024675 C33.5144422,36.1230379 34.7690774,38.6323083 34.7690774,41.3506845 C34.7690774,46.0555664 30.9528954,49.9240249 26.195737,49.9240249 C21.4908551,49.9240249 17.6223966,46.1078429 17.6223966,41.3506845 C17.6223966,38.6323083 18.8770318,36.1230379 21.0726434,34.5024675 C21.6476845,34.0842557 22.4318315,34.1888087 22.8500432,34.7638498 C23.2682549,35.3388909 23.163702,36.1230379 22.5886609,36.5412496 C21.0726434,37.6913319 20.1839435,39.4164552 20.1839435,41.3506845 C20.1839435,44.6441018 22.9023197,47.362478 26.195737,47.362478 C29.4891544,47.362478 32.2075306,44.6963783 32.2075306,41.3506845 C32.2075306,39.4164552 31.3188307,37.6913319 29.8028131,36.5412496 C29.227772,36.1230379 29.1232191,35.3388909 29.5414308,34.7638498 C29.9596426,34.1888087 30.7437896,34.0842557 31.3188307,34.5024675 Z M26.1434606,32.5682382 C26.8448365,32.5682382 27.4021798,33.0963576 27.4474075,33.7845131 L27.4503722,33.8751498 L27.4503722,42.1871079 C27.4503722,42.866702 26.8753311,43.4940196 26.1434606,43.4940196 C25.4420847,43.4940196 24.8847413,42.9659002 24.8395137,42.2777447 L24.8365489,42.1871079 L24.8365489,33.8751498 C24.8365489,33.1432793 25.4115901,32.5682382 26.1434606,32.5682382 Z M19.0338612,11.9190342 C19.5043494,11.5530989 20.131667,11.5530989 20.6021552,11.9190342 L20.6021552,11.9190342 L38.5852594,25.8768506 C39.1080241,26.2950623 39.212577,27.0792093 38.8466417,27.6542504 C38.6375359,27.9679092 38.2193242,28.1247386 37.8533889,28.1247386 C37.5920066,28.1247386 37.2783478,28.0201857 37.0692419,27.8633563 L37.0692419,27.8633563 L33.932654,25.4586389 L33.932654,31.2090501 C33.932654,31.9409206 33.3576129,32.5159617 32.6257423,32.5159617 C31.8938718,32.5159617 31.3188307,31.9409206 31.3188307,31.2090501 L31.3188307,31.2090501 L31.3188307,23.4721331 L19.8180082,14.5328575 L8.31718573,23.4721331 L8.31718573,39.9392199 L13.7539381,39.9392199 C14.4858087,39.9392199 15.0608498,40.514261 15.0608498,41.2461315 C15.0608498,41.9780021 14.4858087,42.5530432 13.7539381,42.5530432 L13.7539381,42.5530432 L7.06255056,42.5530432 C6.33068,42.5530432 5.75563888,41.9780021 5.75563888,41.2461315 L5.75563888,41.2461315 L5.75563888,25.4586389 L2.61905094,27.8633563 C2.09628628,28.3338445 1.25986283,28.2292916 0.841651101,27.6542504 C0.371162907,27.1314858 0.475715839,26.2950623 1.05075696,25.8768506 L1.05075696,25.8768506 L19.0338612,11.9190342 Z M19.7657317,5.8026877 C21.8045139,5.8026877 23.7387431,6.58683472 25.2024842,8.05057573 C25.7252488,8.57334039 25.7252488,9.35748736 25.2024842,9.88025202 C24.6797195,10.4030167 23.8955725,10.4030167 23.3728079,9.88025202 C21.4385787,7.94602281 18.0928848,7.94602281 16.1586556,9.88025202 C15.9495497,10.1416344 15.5836144,10.2461873 15.2699557,10.2461873 C14.9562969,10.2461873 14.6426381,10.1416344 14.3812557,9.88025202 C13.8584911,9.35748736 13.8584911,8.57334039 14.3812557,8.05057573 C15.8449968,6.58683472 17.779226,5.8026877 19.7657317,5.8026877 Z M19.8180082,0.261382329 C23.3205314,0.261382329 26.7185017,1.6728469 29.1232191,4.1298408 C29.6459838,4.65260546 29.6459838,5.43675244 29.1232191,5.95951708 C28.8618368,6.22089944 28.548178,6.32545236 28.2345192,6.32545236 C27.9208604,6.32545236 27.6072016,6.22089944 27.3458193,5.95951708 C25.3593136,3.9730114 22.6409374,2.82292916 19.8180082,2.82292916 C16.995079,2.82292916 14.2767028,3.9730114 12.2901971,5.95951708 C11.7674325,6.43000528 10.9832854,6.43000528 10.4605208,5.95951708 C9.93775618,5.43675244 9.93775618,4.65260546 10.4605208,4.1298408 C12.9697912,1.62057044 16.2632085,0.261382329 19.8180082,0.261382329 Z" id="Combined-Shape"></path>
                    </g>
                </g>
            </g>
        </g>
    </g>
</svg>