<?xml version="1.0" encoding="UTF-8"?>
<svg width="29px" height="50px" viewBox="0 0 29 50" version="1.1" xmlns="http://www.w3.org/2000/svg" xmlns:xlink="http://www.w3.org/1999/xlink">
    <!-- Generator: Sketch 58 (84663) - https://sketch.com -->
    <title>mobility</title>
    <desc>Created with Sketch.</desc>
    <g id="Page-1" stroke="none" stroke-width="1" fill="none" fill-rule="evenodd">
        <g id="Apple-TV-Copy" transform="translate(-88.000000, -961.000000)" fill="#032DE2" fill-rule="nonzero">
            <g id="Group-4" transform="translate(54.500000, 961.000000)">
                <g id="Group-3" transform="translate(33.500000, 0.000000)">
                    <g id="mobility">
                        <path d="M24.7388545,0 C26.7260872,0 28.3505933,1.57813943 28.4188217,3.54220706 L28.4210526,3.67083333 L28.4210526,46.3291667 C28.4210526,48.3094503 26.8388281,49.9297235 24.8671464,49.9977748 L24.7380186,50 L3.68219814,50 C1.69496542,50 0.0704592806,48.4218606 0.00223096739,46.4570117 L-1.0658141e-14,46.3283333 L-1.0658141e-14,3.67083333 C-1.0658141e-14,1.69054964 1.58222459,0.0702765206 3.55312253,0.00222518934 L3.68219814,0 L24.7388545,0 Z M26.749226,40 L1.67182663,40 L1.67182663,46.3291667 C1.67182663,47.3985215 2.51652529,48.2751084 3.57559948,48.3305496 L3.68219814,48.3333333 L24.7388545,48.3333333 C25.81152,48.3333333 26.6908208,47.4912418 26.7464337,46.4354363 L26.749226,46.3291667 L26.749226,40 Z M14.4736842,40.5263158 C16.3603947,40.5263158 17.8947368,42.0606579 17.8947368,43.9473684 C17.8947368,45.8340789 16.3603947,47.3684211 14.4736842,47.3684211 C12.5869737,47.3684211 11.0526316,45.8340789 11.0526316,43.9473684 C11.0526316,42.0606579 12.5869737,40.5263158 14.4736842,40.5263158 Z M14.4736842,42.2368421 C13.5303289,42.2368421 12.7631579,43.0040132 12.7631579,43.9473684 C12.7631579,44.8907237 13.5303289,45.6578947 14.4736842,45.6578947 C15.4170395,45.6578947 16.1842105,44.8907237 16.1842105,43.9473684 C16.1842105,43.0040132 15.4170395,42.2368421 14.4736842,42.2368421 Z M26.749226,6.66666667 L1.67182663,6.66666667 L1.67182663,38.3333333 L26.749226,38.3333333 L26.749226,6.66666667 Z M16.1517105,24.2105263 C17.0798775,24.2105263 17.8406122,24.9392553 17.891973,25.8547716 L17.8947368,25.9535526 L17.8947368,29.3096053 C17.8947368,30.2377722 17.1660079,30.9985069 16.2504916,31.0498678 L16.1517105,31.0526316 L12.7956579,31.0526316 C11.8674909,31.0526316 11.1067562,30.3239026 11.0553954,29.4083863 L11.0526316,29.3096053 L11.0526316,25.9535526 C11.0526316,25.0253857 11.7813606,24.2646509 12.6968768,24.2132901 L12.7956579,24.2105263 L16.1517105,24.2105263 Z M4.90092105,24.2105263 L8.25697367,24.2105263 C9.18514067,24.2105263 9.94587539,24.9392553 9.99723617,25.8547716 L10,25.9535526 L10,29.3096053 C10,30.2377722 9.27127106,30.9985069 8.35575478,31.0498678 L8.25697367,31.0526316 L4.90092105,31.0526316 C3.97275408,31.0526316 3.21201937,30.3239026 3.16065856,29.4083863 L3.15789474,29.3096053 L3.15789474,25.9535526 C3.15789474,25.0253857 3.88662369,24.2646509 4.80213996,24.2132901 L4.90092105,24.2105263 L8.25697367,24.2105263 L4.90092105,24.2105263 Z M23.5201316,24.2105263 C24.4814474,24.2105263 25.2631579,24.9922368 25.2631579,25.9535526 L25.2631579,25.9535526 L25.2631579,29.3096053 C25.2631579,30.2709211 24.4814474,31.0526316 23.5201316,31.0526316 L23.5201316,31.0526316 L20.1640789,31.0526316 C19.2027632,31.0526316 18.4210526,30.2709211 18.4210526,29.3096053 L18.4210526,29.3096053 L18.4210526,25.9535526 C18.4210526,24.9922368 19.2027632,24.2105263 20.1640789,24.2105263 L20.1640789,24.2105263 L23.5201316,24.2105263 Z M12.7956579,25.9210526 L12.7631579,29.3096053 L16.1517105,29.3421053 C16.1636842,29.3421053 16.1741374,29.3352632 16.1797758,29.3256336 L16.1842105,29.3096053 L16.1842105,25.9535526 L12.7956579,25.9210526 Z M4.90092105,25.9210526 L4.86842105,29.3096053 L8.25697367,29.3421053 C8.26894739,29.3421053 8.27940061,29.3352632 8.285039,29.3256336 L8.28947367,29.3096053 L8.28947367,25.9535526 L4.90092105,25.9210526 Z M20.1640789,25.9210526 L20.1315789,29.3096053 L23.5201316,29.3421053 C23.5380921,29.3421053 23.5526316,29.3267105 23.5526316,29.3096053 L23.5526316,29.3096053 L23.5526316,25.9535526 L20.1640789,25.9210526 Z M16.1517105,16.8421053 C17.0798775,16.8421053 17.8406122,17.5708342 17.891973,18.4863505 L17.8947368,18.5851316 L17.8947368,21.9411842 C17.8947368,22.8693512 17.1660079,23.6300859 16.2504916,23.6814467 L16.1517105,23.6842105 L12.7956579,23.6842105 C11.8674909,23.6842105 11.1067562,22.9554816 11.0553954,22.0399653 L11.0526316,21.9411842 L11.0526316,18.5851316 C11.0526316,17.6569646 11.7813606,16.8962299 12.6968768,16.8448691 L12.7956579,16.8421053 L16.1517105,16.8421053 Z M8.25697367,16.8421053 C9.18514067,16.8421053 9.94587539,17.5708342 9.99723617,18.4863505 L10,18.5851316 L10,21.9411842 C10,22.8693512 9.27127106,23.6300859 8.35575478,23.6814467 L8.25697367,23.6842105 L4.90092105,23.6842105 C3.97275408,23.6842105 3.21201937,22.9554816 3.16065856,22.0399653 L3.15789474,21.9411842 L3.15789474,18.5851316 C3.15789474,17.6569646 3.88662369,16.8962299 4.80213996,16.8448691 L4.90092105,16.8421053 L8.25697367,16.8421053 Z M23.5201316,16.8421053 C24.4482986,16.8421053 25.2090333,17.5708342 25.2603941,18.4863505 L25.2631579,18.5851316 L25.2631579,21.9411842 C25.2631579,22.8693512 24.5344289,23.6300859 23.6189127,23.6814467 L23.5201316,23.6842105 L20.1640789,23.6842105 C19.235912,23.6842105 18.4751773,22.9554816 18.4238164,22.0399653 L18.4210526,21.9411842 L18.4210526,18.5851316 C18.4210526,17.6569646 19.1497816,16.8962299 20.0652978,16.8448691 L20.1640789,16.8421053 L23.5201316,16.8421053 Z M12.7956579,18.5526316 L12.7631579,21.9411842 L16.1517105,21.9736842 C16.1636842,21.9736842 16.1741374,21.9668421 16.1797758,21.9572125 L16.1842105,21.9411842 L16.1842105,18.5851316 L12.7956579,18.5526316 Z M4.90092105,18.5526316 L4.86842105,21.9411842 L8.25697367,21.9736842 C8.26894739,21.9736842 8.27940061,21.9668421 8.285039,21.9572125 L8.28947367,21.9411842 L8.28947367,18.5851316 L4.90092105,18.5526316 Z M20.1640789,18.5526316 L20.1315789,21.9411842 L23.5201316,21.9736842 C23.5321053,21.9736842 23.5425585,21.9668421 23.5481969,21.9572125 L23.5526316,21.9411842 L23.5526316,18.5851316 L20.1640789,18.5526316 Z M16.1517105,8.94736844 C17.0798775,8.94736844 17.8406122,9.67609739 17.891973,10.5916137 L17.8947368,10.6903947 L17.8947368,14.0464474 C17.8947368,14.9746143 17.1660079,15.7353491 16.2504916,15.7867099 L16.1517105,15.7894737 L12.7956579,15.7894737 C11.8674909,15.7894737 11.1067562,15.0607447 11.0553954,14.1452284 L11.0526316,14.0464474 L11.0526316,10.6903947 C11.0526316,9.76222778 11.7813606,9.00149306 12.6968768,8.95013222 L12.7956579,8.94736844 L16.1517105,8.94736844 Z M8.25697367,8.94736844 C9.18514067,8.94736844 9.94587539,9.67609739 9.99723617,10.5916137 L10,10.6903947 L10,14.0464474 C10,14.9746143 9.27127106,15.7353491 8.35575478,15.7867099 L8.25697367,15.7894737 L4.90092105,15.7894737 C3.97275408,15.7894737 3.21201937,15.0607447 3.16065856,14.1452284 L3.15789474,14.0464474 L3.15789474,10.6903947 C3.15789474,9.76222778 3.88662369,9.00149306 4.80213996,8.95013222 L4.90092105,8.94736844 L8.25697367,8.94736844 Z M23.5201316,8.94736844 C24.4482986,8.94736844 25.2090333,9.67609739 25.2603941,10.5916137 L25.2631579,10.6903947 L25.2631579,14.0464474 C25.2631579,14.9746143 24.5344289,15.7353491 23.6189127,15.7867099 L23.5201316,15.7894737 L20.1640789,15.7894737 C19.235912,15.7894737 18.4751773,15.0607447 18.4238164,14.1452284 L18.4210526,14.0464474 L18.4210526,10.6903947 C18.4210526,9.76222778 19.1497816,9.00149306 20.0652978,8.95013222 L20.1640789,8.94736844 L23.5201316,8.94736844 Z M12.7956579,10.6570395 L12.7631579,14.0455921 L16.1517105,14.0780921 C16.1636842,14.0780921 16.1741374,14.0716301 16.1797758,14.0620005 L16.1842105,14.0455921 L16.1842105,10.6903947 L12.7956579,10.6570395 Z M4.90092105,10.6570395 L4.86842105,14.0455921 L8.25697367,14.0780921 C8.26894739,14.0780921 8.27940061,14.0716301 8.285039,14.0620005 L8.28947367,14.0455921 L8.28947367,10.6903947 L4.90092105,10.6570395 Z M20.1640789,10.6570395 L20.1315789,14.0455921 L23.5201316,14.0780921 C23.5321053,14.0780921 23.5425585,14.0716301 23.5481969,14.0620005 L23.5526316,14.0455921 L23.5526316,10.6903947 L20.1640789,10.6570395 Z M24.7380186,1.66666667 L3.68219814,1.66666667 C2.60953261,1.66666667 1.73023183,2.50875824 1.67461894,3.56456368 L1.67182663,3.67083333 L1.67182663,5 L26.749226,5 L26.749226,3.67083333 C26.749226,2.56583333 25.8472756,1.66666667 24.7380186,1.66666667 Z M14.3859649,2.63157895 C14.8701754,2.63157895 15.2631579,2.98447368 15.2631579,3.42105263 C15.2631579,3.83337719 14.9126272,4.17105751 14.4657702,4.20730493 L14.3859649,4.21052632 L10.877193,4.21052632 C10.3929824,4.21052632 10,3.85763158 10,3.42105263 C10,3.00872807 10.3505307,2.67104776 10.7973877,2.63480033 L10.877193,2.63157895 L14.3859649,2.63157895 Z M17.5438597,2.63157895 C18.0280702,2.63157895 18.4210526,2.98447368 18.4210526,3.42105263 C18.4210526,3.83337719 18.070522,4.17105751 17.6236649,4.20730493 L17.5438597,4.21052632 L16.6666667,4.21052632 C16.1824562,4.21052632 15.7894737,3.85763158 15.7894737,3.42105263 C15.7894737,3.00872807 16.1400043,2.67104776 16.5868613,2.63480033 L16.6666667,2.63157895 L17.5438597,2.63157895 Z" id="Combined-Shape"></path>
                    </g>
                </g>
            </g>
        </g>
    </g>
</svg>