<?xml version="1.0" encoding="UTF-8"?>
<svg width="50px" height="50px" viewBox="0 0 50 50" version="1.1" xmlns="http://www.w3.org/2000/svg" xmlns:xlink="http://www.w3.org/1999/xlink">
    <!-- Generator: Sketch 58 (84663) - https://sketch.com -->
    <title>ui</title>
    <desc>Created with Sketch.</desc>
    <g id="Page-1" stroke="none" stroke-width="1" fill="none" fill-rule="evenodd">
        <g id="Apple-TV-Copy" transform="translate(-1143.000000, -961.000000)" fill="#032DE2" fill-rule="nonzero">
            <g id="Group-4" transform="translate(54.500000, 961.000000)">
                <g id="Group-3" transform="translate(33.500000, 0.000000)">
                    <g id="ui" transform="translate(1055.000000, 0.000000)">
                        <path d="M25,9.765625 C25.3273682,9.765625 25.6307753,9.9294135 25.8109307,10.1980179 L25.8569336,10.2738281 L35.6223633,28.1445312 C35.6391602,28.1751953 35.6542969,28.2069336 35.6677734,28.2395508 C35.6690429,28.2425781 35.6699219,28.2458008 35.6711914,28.2488281 L35.6872681,28.2913086 L35.7013672,28.3346679 L35.7082031,28.3612304 C35.7143554,28.3845703 35.7202148,28.4080078 35.7247071,28.4319336 C35.7271484,28.4444336 35.7286133,28.4569336 35.7304688,28.4694336 C35.7334961,28.4897461 35.7363281,28.5101563 35.7380859,28.5308594 L35.7394653,28.5535644 L35.7403321,28.5762696 L35.7422852,28.6132812 L35.7418335,28.6228393 L35.7413086,28.6323242 L35.7389648,28.6782227 C35.7376953,28.6976562 35.7361328,28.7169922 35.7336914,28.7361328 C35.7320313,28.7496094 35.7297852,28.7629883 35.7275391,28.7764648 C35.7239258,28.7975586 35.7198242,28.8184571 35.7149414,28.8390625 C35.7121094,28.8506836 35.7091797,28.8623047 35.7059571,28.8738281 C35.6998047,28.8960937 35.6927734,28.9179687 35.6851563,28.9395508 L35.6822998,28.9488281 L35.6792969,28.9581054 L32.1569336,38.2922852 C33.1231446,38.7716797 33.7890625,39.7682617 33.7890625,40.9179688 C33.7890625,41.7001953 33.4842773,42.4358398 32.9308594,42.9893554 C32.6557129,43.2645019 32.3354813,43.4779648 31.9869779,43.6232672 L31.8359375,43.6813477 L31.8359375,49.0234375 C31.8359375,49.5358252 31.4413582,49.9560239 30.9394703,49.9967628 L30.859375,50 L19.140625,50 C18.6282373,50 18.2080386,49.6054207 18.1672997,49.1035328 L18.1640625,49.0234375 L18.1640625,43.6796875 C17.0274414,43.2765625 16.2109375,42.1910156 16.2109375,40.9179688 C16.2109375,40.1357422 16.5157227,39.4000977 17.0692383,38.8465821 C17.2605632,38.6553386 17.4739285,38.4942736 17.7032308,38.3648564 L17.8426758,38.2910156 L14.3208008,28.9581054 C14.3184571,28.9519531 14.3170898,28.9457031 14.3149414,28.9395508 L14.3039917,28.9069458 L14.2941406,28.8738281 L14.2851563,28.8390625 C14.2802734,28.8184571 14.2760742,28.7975586 14.2725586,28.7764648 C14.2703125,28.7629883 14.2681641,28.7496094 14.2664063,28.7361328 C14.2639648,28.7169922 14.2624023,28.6976563 14.2611328,28.6782227 C14.2600586,28.6628906 14.2590821,28.6476563 14.2587891,28.6323242 C14.2586914,28.6258789 14.2578125,28.6197266 14.2578125,28.6132813 C14.2578125,28.6007813 14.2591797,28.5886719 14.2596679,28.5763672 C14.2601563,28.5612304 14.2606446,28.5460938 14.2619141,28.5309571 L14.2652466,28.5000977 L14.2695313,28.4695313 L14.2752929,28.4320313 L14.2828857,28.3964233 L14.2917969,28.3613281 L14.2986328,28.3347656 C14.3073242,28.3055664 14.3174804,28.2769531 14.3288086,28.2489258 C14.3300781,28.2458008 14.3309571,28.2426758 14.3322266,28.2396484 L14.3536865,28.1914063 L14.3776367,28.1446289 L24.1430664,10.2739258 C24.3142578,9.96054689 24.6428711,9.765625 25,9.765625 Z M29.8828125,43.8476562 L20.1171875,43.8476562 L20.1171875,48.046875 L29.8828125,48.046875 L29.8828125,43.8476562 Z M30.8560547,39.9415527 L19.140625,39.9414062 C18.8800781,39.9414062 18.6349609,40.0430664 18.4502929,40.2277344 C18.2657227,40.4122071 18.1640625,40.6574219 18.1640625,40.9179688 C18.1640625,41.4295215 18.5594351,41.8504717 19.0606487,41.8912878 L19.140625,41.8945312 L30.859375,41.8945312 C31.1199219,41.8945312 31.3651367,41.7928711 31.5497071,41.6082031 C31.7342773,41.4237304 31.8360352,41.1785156 31.8360352,40.9179688 C31.8360352,40.3805664 31.3996094,39.9433594 30.8625977,39.9416016 C30.8615234,39.9416016 30.8603516,39.9416992 30.8592773,39.9416992 L30.8560547,39.9415527 Z M25.9765625,14.5658203 L25.9765625,25.8515625 C27.1131836,26.2546875 27.9296875,27.3402344 27.9296875,28.6132812 C27.9296875,30.2287109 26.6154297,31.5429688 25,31.5429688 C23.3845703,31.5429688 22.0703125,30.2287109 22.0703125,28.6132812 C22.0703125,27.3840383 22.8314767,26.3297692 23.9070183,25.8956788 L24.0234375,25.8515625 L24.0234375,14.5658203 L16.8808594,27.6367188 L19.140625,27.6367188 C19.6799804,27.6367188 20.1171875,28.0739258 20.1171875,28.6132812 C20.1171875,29.1256689 19.7226082,29.5458677 19.2207203,29.5866066 L19.140625,29.5898438 L16.6466797,29.5898438 L19.8159179,37.9882812 L30.1840821,37.9882812 L33.3533203,29.5898438 L30.859375,29.5898438 C30.3200196,29.5898438 29.8828125,29.1526367 29.8828125,28.6132812 C29.8828125,28.1008936 30.2773918,27.6806948 30.7792797,27.6399559 L30.859375,27.6367188 L33.1191406,27.6367188 L25.9765625,14.5658203 Z M25,27.6367188 C24.4615234,27.6367188 24.0234375,28.0748047 24.0234375,28.6132812 C24.0234375,29.1517578 24.4615234,29.5898438 25,29.5898438 C25.5384766,29.5898438 25.9765625,29.1517578 25.9765625,28.6132812 C25.9765625,28.0748047 25.5384766,27.6367188 25,27.6367188 Z M45.2242188,13.5053711 C46.5482167,15.8828507 47.4127821,18.4387603 47.8049243,21.1182318 L47.8554688,21.484375 L49.0234375,21.484375 C49.5358252,21.484375 49.9560239,21.8789543 49.9967628,22.3808422 L50,22.4609375 L50,26.3671875 C50,26.8795752 49.6054207,27.2997739 49.1035328,27.3405128 L49.0234375,27.34375 L45.1171875,27.34375 C44.6047998,27.34375 44.1846011,26.9491707 44.1438622,26.4472828 L44.140625,26.3671875 L44.140625,22.4609375 C44.140625,21.9485498 44.5352043,21.5283511 45.0370922,21.4876122 L45.1171875,21.484375 L45.8861328,21.484375 C45.5339844,19.0090821 44.7392578,16.6492187 43.5177734,14.4555664 C43.2553711,13.984375 43.4247071,13.3896484 43.8958984,13.1272461 C44.3671875,12.8648437 44.9618164,13.0342773 45.2242188,13.5053711 Z M6.10400389,13.1272461 C6.57529294,13.3896484 6.74453122,13.984375 6.48212889,14.4555664 C5.32171875,16.5395361 4.54654566,18.7735112 4.16992238,21.1139531 L4.11376953,21.484375 L4.8828125,21.484375 C5.39520019,21.484375 5.81539894,21.8789543 5.85613783,22.3808422 L5.859375,22.4609375 L5.859375,26.3671875 C5.859375,26.8795752 5.46479566,27.2997739 4.96290782,27.3405128 L4.8828125,27.34375 L0.9765625,27.34375 C0.464174804,27.34375 0.0439760742,26.9491707 0.00323717041,26.4472828 L-3.55271368e-14,26.3671875 L-3.55271368e-14,22.4609375 C-3.55271368e-14,21.9485498 0.394579346,21.5283511 0.896467178,21.4876122 L0.9765625,21.484375 L2.14453125,21.484375 C2.50947266,18.6714844 3.39160156,15.9909179 4.77568359,13.5053711 C5.03798828,13.0340821 5.63271483,12.8647461 6.10400389,13.1272461 Z M48.046875,23.4375 L46.09375,23.4375 L46.09375,25.390625 L48.046875,25.390625 L48.046875,23.4375 Z M3.90625,23.4375 L1.953125,23.4375 L1.953125,25.390625 L3.90625,25.390625 L3.90625,23.4375 Z M42.1875,9.765625 C42.7265625,9.765625 43.1640625,10.203125 43.1640625,10.7421875 C43.1640625,11.28125 42.7265625,11.71875 42.1875,11.71875 C41.6484375,11.71875 41.2109375,11.28125 41.2109375,10.7421875 C41.2109375,10.203125 41.6484375,9.765625 42.1875,9.765625 Z M7.8125,9.765625 C8.3515625,9.765625 8.7890625,10.203125 8.7890625,10.7421875 C8.7890625,11.28125 8.3515625,11.71875 7.8125,11.71875 C7.2734375,11.71875 6.8359375,11.28125 6.8359375,10.7421875 C6.8359375,10.203125 7.2734375,9.765625 7.8125,9.765625 Z M26.953125,7.10542736e-15 C27.4924804,7.10542736e-15 27.9296875,0.437207031 27.9296875,0.9765625 L27.9296875,0.9765625 L27.9296875,1.953125 L44.3085938,1.953125 C44.7117187,0.816503906 45.7972656,7.10542736e-15 47.0703125,7.10542736e-15 C48.6857422,7.10542736e-15 50,1.31425781 50,2.9296875 C50,4.54511719 48.6857422,5.859375 47.0703125,5.859375 C45.7971679,5.859375 44.7117187,5.04287109 44.3085938,3.90625 L44.3085938,3.90625 L34.4908203,3.90625 C36.5737304,4.77783203 38.4838867,5.90927733 40.0561523,7.23476561 C40.4685547,7.58242189 40.5210937,8.19853517 40.1733398,8.61074217 C39.9802734,8.83994139 39.7041992,8.95791017 39.4262696,8.95791017 C39.2040039,8.95800783 38.9805664,8.88251956 38.7973633,8.72802733 C35.9954102,6.36601561 31.9967773,4.67900391 27.9296875,4.11318359 L27.9296875,4.11318359 L27.9296875,4.8828125 C27.9296875,5.42216797 27.4924804,5.859375 26.953125,5.859375 L26.953125,5.859375 L23.046875,5.859375 C22.5075196,5.859375 22.0703125,5.42216797 22.0703125,4.8828125 L22.0703125,4.8828125 L22.0703125,4.11318359 C18.0032227,4.67900391 14.0045898,6.36601561 11.2026367,8.728125 C11.0194336,8.88261717 10.7959961,8.95800783 10.5737304,8.95800783 C10.2958984,8.95800783 10.0198242,8.84003906 9.82666017,8.61083983 C9.47900389,8.19853517 9.53144533,7.58242189 9.94384767,7.23476561 C11.5161133,5.90927733 13.4262696,4.77783203 15.5091797,3.90625 L15.5091797,3.90625 L5.69140622,3.90625 C5.28828125,5.04287109 4.20273438,5.859375 2.9296875,5.859375 C1.31425781,5.859375 0,4.54511719 0,2.9296875 C0,1.31425781 1.31425781,7.10542736e-15 2.9296875,7.10542736e-15 C4.20273438,7.10542736e-15 5.28828125,0.816503906 5.69140622,1.953125 L5.69140622,1.953125 L22.0703125,1.953125 L22.0703125,0.9765625 C22.0703125,0.437207031 22.5075196,7.10542736e-15 23.046875,7.10542736e-15 L23.046875,7.10542736e-15 L26.953125,7.10542736e-15 Z M2.9296875,1.953125 C2.39121094,1.953125 1.953125,2.39121094 1.953125,2.9296875 C1.953125,3.46816406 2.39121094,3.90625 2.9296875,3.90625 C3.46816406,3.90625 3.90625,3.46816406 3.90625,2.9296875 C3.90625,2.39121094 3.46816406,1.953125 2.9296875,1.953125 Z M25.9765625,1.953125 L24.0234375,1.953125 L24.0234375,3.90625 L25.9765625,3.90625 L25.9765625,1.953125 Z M47.0703125,1.953125 C46.5318359,1.953125 46.09375,2.39121094 46.09375,2.9296875 C46.09375,3.46816406 46.5318359,3.90625 47.0703125,3.90625 C47.6087891,3.90625 48.046875,3.46816406 48.046875,2.9296875 C48.046875,2.39121094 47.6087891,1.953125 47.0703125,1.953125 Z" id="Combined-Shape"></path>
                    </g>
                </g>
            </g>
        </g>
    </g>
</svg>