<?xml version="1.0" encoding="UTF-8"?>
<svg width="50px" height="49px" viewBox="0 0 50 49" version="1.1" xmlns="http://www.w3.org/2000/svg" xmlns:xlink="http://www.w3.org/1999/xlink">
    <!-- Generator: Sketch 58 (84663) - https://sketch.com -->
    <title>web</title>
    <desc>Created with Sketch.</desc>
    <g id="Page-1" stroke="none" stroke-width="1" fill="none" fill-rule="evenodd">
        <g id="Apple-TV-Copy" transform="translate(-294.000000, -963.000000)" fill="#032DE2" fill-rule="nonzero">
            <g id="Group-4" transform="translate(54.500000, 961.000000)">
                <g id="Group-3" transform="translate(33.500000, 0.000000)">
                    <g id="web" transform="translate(206.000000, 2.000000)">
                        <path d="M46.6172606,0.0519966181 C48.3925111,0.0519966181 49.8478832,1.44837604 49.9429355,3.20025275 L49.9478733,3.38270682 L49.9479709,35.0146982 C49.9479709,36.7899486 48.5516826,38.2454119 46.7997238,38.3404703 L46.6172606,38.3454084 L29.9921003,38.3458624 C30.1793887,41.5636745 31.4941333,43.240116 33.9086185,43.3359466 L34.131146,43.3403031 L35.7960133,43.3403031 C37.1728993,43.3403031 38.2935094,44.4608155 38.2935094,45.8377016 C38.2935094,47.1595122 37.2608451,48.245049 35.9600512,48.329777 L35.7961108,48.3351002 L14.1519576,48.3351002 C12.7750716,48.3351002 11.654559,47.2145877 11.654559,45.8377016 C11.654559,44.515891 12.6872234,43.4303543 13.9880172,43.3456262 L14.1519576,43.3403031 L15.8169225,43.3403031 C18.3732184,43.3403031 19.7630044,41.6611839 19.9559681,38.3458624 L3.3307102,38.3454084 C1.55545981,38.3454084 0.0999965312,36.9491202 0.00493814674,35.1971614 L1.03028697e-13,35.0146982 L8.8817842e-14,3.38270682 C8.8817842e-14,1.60755073 1.39628826,0.151999436 3.14824701,0.0569350792 L3.3307102,0.0519966181 L46.6172606,0.0519966181 Z M35.7961108,45.005268 L14.1519576,45.005268 C13.6924753,45.005268 13.3195239,45.3789997 13.3195239,45.8377016 C13.3195239,46.2611187 13.637305,46.6121353 14.0475896,46.6636324 L14.1519576,46.6701353 L35.7960133,46.6701353 C36.2555931,46.6701353 36.6285445,46.2964035 36.6285445,45.8377016 C36.6285445,45.3789997 36.2555931,45.005268 35.7961108,45.005268 Z M28.3271332,38.345506 L21.6216181,38.345506 C21.5072152,40.3864866 20.9659214,42.0042921 20.0482437,43.1341822 L19.8717807,43.3403031 L30.0769706,43.3403031 C29.0513788,42.2048647 28.4478083,40.5140478 28.3271332,38.345506 Z M48.2831035,31.685744 L1.66496488,31.685744 L1.66496488,35.0147958 C1.66496488,35.8854863 2.33590618,36.6014654 3.18723578,36.6744197 L3.3307102,36.6805411 L46.6172606,36.6805411 C47.4871194,36.6805411 48.2039303,36.0103878 48.2769745,35.1583946 L48.2831035,35.0147958 L48.2831035,31.685744 Z M27.471384,33.3507089 C27.9308663,33.3507089 28.3038176,33.7236603 28.3038176,34.1831426 C28.3038176,34.6072801 27.9860366,34.9576871 27.5757519,35.0090862 L27.471384,35.0155762 L22.4765869,35.0155762 C22.0171046,35.0155762 21.6441532,34.6426249 21.6441532,34.1831426 C21.6441532,33.7590051 21.9619343,33.408598 22.3722189,33.3571989 L22.4765869,33.3507089 L27.471384,33.3507089 Z M46.6172606,1.7169615 L3.3307102,1.7169615 C2.4608515,1.7169615 1.74412817,2.38711479 1.67109319,3.23910798 L1.66496488,3.38270682 L1.66496488,30.0207791 L3.329,30.0199966 L3.32992976,4.21436004 C3.32992976,3.79022252 3.64771079,3.43981553 4.05799547,3.38841645 L4.16236342,3.38192638 L45.7856074,3.38192638 C46.209835,3.38192638 46.5602489,3.69970741 46.6116485,4.10999208 L46.6181387,4.21436004 L46.618,30.0199966 L48.283006,30.0207791 L48.283006,3.38270682 C48.283006,2.46364464 47.5354448,1.7169615 46.6172606,1.7169615 Z M44.9531738,5.0467937 L4.99479709,5.0467937 L4.99479709,30.0207791 L44.9531738,30.0207791 L44.9531738,5.0467937 Z M34.9635796,6.7117586 C35.4230619,6.7117586 35.7961108,7.08470995 35.7961108,7.54419226 L35.7961108,7.54419226 L35.796,19.2429966 L38.5381764,20.0662071 C38.8187435,20.1510796 39.0343392,20.3758455 39.1059444,20.6597295 C39.1685988,20.9081279 39.1127198,21.169896 38.9588939,21.370334 L38.8870317,21.4522633 L37.7690556,22.5702394 L39.7785835,24.5797672 C40.0769056,24.8781787 40.1017657,25.3451266 39.8530889,25.6715524 L39.778486,25.7568613 L37.4242976,28.1119277 C37.2686004,28.2684053 37.0563216,28.3558142 36.8357505,28.3558142 C36.6519414,28.3558142 36.4738906,28.2951136 36.3295436,28.1843259 L36.2472034,28.1119277 L34.2376756,26.1015218 L33.0605815,27.279494 C32.8532778,27.4867001 32.5510536,27.5683533 32.2680476,27.4984066 C32.0196491,27.4357521 31.8159154,27.2628548 31.7125281,27.0321286 L31.6745252,26.9298582 L30.853,24.1929966 L11.654559,24.1934508 C11.2304215,24.1934508 10.8800145,23.8756698 10.8286154,23.4653851 L10.8221254,23.3610172 L10.8221254,7.54419226 C10.8221254,7.08470995 11.1950767,6.7117586 11.654559,6.7117586 L11.654559,6.7117586 Z M31.2159209,19.6074076 L32.8683012,25.1158298 L33.4693353,24.5147958 C33.6807362,24.3041753 33.9587669,24.1976457 34.2376756,24.1976457 C34.4759876,24.1976457 34.7142996,24.275339 34.9112053,24.4312171 L35.0060159,24.5156738 L36.8357505,26.3462864 L38.0128447,25.1683142 L36.0815556,23.2370252 C35.9034209,23.0605489 35.8051834,22.8225156 35.8051834,22.5702394 C35.8051834,22.3607408 35.8727942,22.1616074 35.9979667,21.9979617 L36.0798973,21.9042339 L36.7242456,21.2598855 L34.735,20.6619966 L34.7247659,20.6605099 L31.2159209,19.6074076 Z M30.1025084,17.5435606 L30.2135471,17.5688085 L34.131146,18.7442443 L34.131,12.5379966 L12.486,12.5379966 L12.4869927,22.5286811 L30.3533428,22.5286811 L29.1762487,18.6061069 C29.0880593,18.3121748 29.1679566,17.9950247 29.3852107,17.7777705 C29.547566,17.6154153 29.7665518,17.5293904 29.9898589,17.5337712 C30.0279547,17.5345013 30.0652926,17.5377427 30.1025084,17.5435606 Z M14.9843912,15.8689191 L21.6441532,15.8689191 C22.0682907,15.8689191 22.4186977,16.1867001 22.4700968,16.5969848 L22.4765869,16.7013527 L22.4765869,20.0311849 C22.4765869,20.4553225 22.1588059,20.8057295 21.7485212,20.8571285 L21.6441532,20.8636186 L14.9843912,20.8636186 C14.5602537,20.8636186 14.2098467,20.5458376 14.1584476,20.1355529 L14.1519576,20.0311849 L14.1519576,16.7013527 C14.1519576,16.2772152 14.4697386,15.9268082 14.8800233,15.8754092 L14.9843912,15.8689191 L21.6441532,15.8689191 Z M20.811622,17.5337864 L15.8168249,17.5337864 L15.8168249,19.1987513 L20.811622,19.1987513 L20.811622,17.5337864 Z M34.131146,8.37672344 L12.4869927,8.37672344 L12.4869927,10.874122 L34.131146,10.874122 L34.131146,8.37672344 Z" id="Combined-Shape"></path>
                    </g>
                </g>
            </g>
        </g>
    </g>
</svg>