<svg xmlns="http://www.w3.org/2000/svg" xmlns:xlink="http://www.w3.org/1999/xlink" width="1920" height="773" viewBox="0 0 1920 773">
  <defs>
    <style>
      .cls-1 {
        fill: #fff;
      }

      .cls-2, .cls-3 {
        fill: #48a4ff;
      }

      .cls-2 {
        opacity: 0.05;
      }

      .cls-3 {
        opacity: 0.06;
      }

      .cls-4, .cls-5 {
        opacity: 0.08;
      }

      .cls-6 {
        fill: none;
        stroke: #000;
        stroke-linecap: round;
        stroke-linejoin: round;
        stroke-miterlimit: 10;
        stroke-width: 2px;
      }

      .cls-7 {
        clip-path: url(#clip-path);
      }
    </style>
    <clipPath id="clip-path">
      <path id="path3592" d="M0-682.665H72.089v72.089H0Z" transform="translate(0 682.665)"/>
    </clipPath>
  </defs>
  <g id="Group_10932" data-name="Group 10932" transform="translate(0 -6215)">
    <rect id="Rectangle_2271" data-name="Rectangle 2271" class="cls-1" width="1920" height="773" transform="translate(0 6215)"/>
    <circle id="Ellipse_297" data-name="Ellipse 297" class="cls-2" cx="108" cy="108" r="108" transform="translate(16 6289)"/>
    <circle id="Ellipse_298" data-name="Ellipse 298" class="cls-3" cx="63.5" cy="63.5" r="63.5" transform="translate(1464 6840)"/>
    <g id="faq" class="cls-4" transform="translate(294 6345.875)">
      <path id="Path_5147" data-name="Path 5147" d="M69.75,22.75H48.375V9.25A2.253,2.253,0,0,0,46.125,7H2.25A2.252,2.252,0,0,0,0,9.25V43a2.252,2.252,0,0,0,2.25,2.25h4.5L9.787,49.3a1.125,1.125,0,0,0,1.8,0l3.037-4.05h13.5V56.5a2.252,2.252,0,0,0,2.25,2.25h27l3.038,4.05a1.125,1.125,0,0,0,1.8,0l3.038-4.05h4.5A2.253,2.253,0,0,0,72,56.5V25A2.253,2.253,0,0,0,69.75,22.75ZM14.063,43a1.124,1.124,0,0,0-.9.45l-2.475,3.3-2.475-3.3a1.126,1.126,0,0,0-.9-.45H2.25V9.25H46.125V43ZM69.75,56.5H64.688a1.124,1.124,0,0,0-.9.45l-2.475,3.3-2.475-3.3a1.123,1.123,0,0,0-.9-.45H30.375V45.25h15.75A2.253,2.253,0,0,0,48.375,43V25H69.75Z" transform="translate(0 -7)"/>
      <path id="Path_5148" data-name="Path 5148" d="M15.875,24.75a1.125,1.125,0,0,0-1.125-1.125h-4.5V20.25h4.5a1.125,1.125,0,0,0,0-2.25H9.125A1.125,1.125,0,0,0,8,19.125v11.25a1.125,1.125,0,0,0,2.25,0v-4.5h4.5A1.125,1.125,0,0,0,15.875,24.75Z" transform="translate(1 -5.625)"/>
      <path id="Path_5149" data-name="Path 5149" d="M20.67,18.707a1.126,1.126,0,0,0-2.09,0l-4.5,11.25a1.126,1.126,0,0,0,2.09.836L17.687,27h3.877l1.518,3.794a1.123,1.123,0,0,0,1.044.706,1.11,1.11,0,0,0,.417-.081,1.126,1.126,0,0,0,.628-1.462ZM18.587,24.75l1.038-2.6,1.038,2.6Z" transform="translate(1.75 -5.625)"/>
      <path id="Path_5150" data-name="Path 5150" d="M34.655,30.246l.925.925A1.125,1.125,0,0,0,37.17,29.58l-.925-.925a6.771,6.771,0,1,0-1.591,1.591Zm-8.4-5.5a4.5,4.5,0,0,1,9,0,4.451,4.451,0,0,1-.638,2.271L32.67,25.08A1.125,1.125,0,0,0,31.08,26.67l1.942,1.942a4.441,4.441,0,0,1-2.271.638A4.5,4.5,0,0,1,26.25,24.75Z" transform="translate(3 -5.625)"/>
      <path id="Path_5151" data-name="Path 5151" d="M51.125,27.25H59A1.125,1.125,0,0,0,59,25H51.125a1.125,1.125,0,0,0,0,2.25Z" transform="translate(6.25 -4.75)"/>
      <path id="Path_5152" data-name="Path 5152" d="M47.125,31.25H59.5a1.125,1.125,0,0,0,0-2.25H47.125a1.125,1.125,0,0,0,0,2.25Z" transform="translate(5.75 -4.25)"/>
      <path id="Path_5153" data-name="Path 5153" d="M47.125,35.25H59.5a1.125,1.125,0,0,0,0-2.25H47.125a1.125,1.125,0,0,0,0,2.25Z" transform="translate(5.75 -3.75)"/>
      <path id="Path_5154" data-name="Path 5154" d="M59.5,37H47.125a1.125,1.125,0,0,0,0,2.25H59.5a1.125,1.125,0,0,0,0-2.25Z" transform="translate(5.75 -3.25)"/>
      <path id="Path_5155" data-name="Path 5155" d="M61.5,43H31.125a1.125,1.125,0,0,0,0,2.25H61.5a1.125,1.125,0,0,0,0-2.25Z" transform="translate(3.75 -2.5)"/>
      <path id="Path_5156" data-name="Path 5156" d="M52.5,47H31.125a1.125,1.125,0,0,0,0,2.25H52.5a1.125,1.125,0,0,0,0-2.25Z" transform="translate(3.75 -2)"/>
    </g>
    <g id="faq_1_" data-name="faq (1)" class="cls-4" transform="translate(1468 6300.5)">
      <path id="Path_5157" data-name="Path 5157" d="M17.644,89.59a2.524,2.524,0,0,0,3.382-1.132A27.307,27.307,0,0,1,31.794,77.066a27.693,27.693,0,0,0,6.456,2.575,2.437,2.437,0,0,0,.636.083,2.523,2.523,0,0,0,.632-4.964,22.763,22.763,0,1,1,17.96-2.826c-.035.019-.068.043-.1.063A22.525,22.525,0,0,1,54.5,73.535a2.522,2.522,0,0,0,2.049,4.608c.741-.329,1.455-.7,2.154-1.084A27.212,27.212,0,0,1,69.958,89.443a2.521,2.521,0,1,0,4.6-2.066A32.268,32.268,0,0,0,63.221,73.944,27.81,27.81,0,1,0,27.3,73.937a32.381,32.381,0,0,0-10.79,12.27,2.524,2.524,0,0,0,1.132,3.383Z" transform="translate(-16.247 -0.184)"/>
      <path id="Path_5158" data-name="Path 5158" d="M33.742,59.912A13.8,13.8,0,0,0,41.9,62.6a13.333,13.333,0,0,0,7.884-2.624,2.522,2.522,0,1,0-2.942-4.1,8.343,8.343,0,0,1-10,.055,2.522,2.522,0,0,0-3.1,3.977Z" transform="translate(-16.247 -0.184)"/>
      <path id="Path_5159" data-name="Path 5159" d="M37.821,46.982a2.965,2.965,0,1,0-2.965,2.966A2.97,2.97,0,0,0,37.821,46.982Z" transform="translate(-16.247 -0.184)"/>
      <path id="Path_5160" data-name="Path 5160" d="M51.729,46.982a2.967,2.967,0,1,0-2.965,2.966A2.969,2.969,0,0,0,51.729,46.982Z" transform="translate(-16.247 -0.184)"/>
      <path id="Path_5161" data-name="Path 5161" d="M29.812,16.147a2.522,2.522,0,0,0,4.575-2.126L31.122,7a2.522,2.522,0,0,0-4.574,2.126Z" transform="translate(-16.247 -0.184)"/>
      <path id="Path_5162" data-name="Path 5162" d="M32.322,21.184A2.522,2.522,0,1,0,36.627,19.4a2.6,2.6,0,0,0-3.564,0A2.518,2.518,0,0,0,32.322,21.184Z" transform="translate(-16.247 -0.184)"/>
      <path id="Path_5163" data-name="Path 5163" d="M44.392,18.663a2.518,2.518,0,0,0,0,3.564,2.513,2.513,0,0,0,1.782.739,2.519,2.519,0,0,0,1.781-4.3A2.6,2.6,0,0,0,44.392,18.663Z" transform="translate(-16.247 -0.184)"/>
      <path id="Path_5164" data-name="Path 5164" d="M44.6,9.582a2.52,2.52,0,0,0,2.177-2.823c-.086-.679.025-1.126.333-1.329a2,2,0,0,1,1.955.1,1.652,1.652,0,0,1,.8,1.712c-.075.93-.548,1.325-1.984,2.305a8.705,8.705,0,0,0-3.652,3.978,2.522,2.522,0,1,0,4.7,1.836c.213-.548.822-.983,1.795-1.648,1.552-1.057,3.9-2.655,4.171-6.067a6.7,6.7,0,0,0-3.259-6.457,7.034,7.034,0,0,0-7.3.027A6.139,6.139,0,0,0,41.782,7.4,2.526,2.526,0,0,0,44.6,9.582Z" transform="translate(-16.247 -0.184)"/>
      <path id="Path_5165" data-name="Path 5165" d="M59.05,19.007a2.52,2.52,0,0,0,3.523-.54L67.5,11.759a2.52,2.52,0,1,0-4.062-2.985L58.51,15.482a2.521,2.521,0,0,0,.54,3.525Z" transform="translate(-16.247 -0.184)"/>
    </g>
    <path id="faq_2_" data-name="faq (2)" class="cls-5" d="M92.692,32.68H68.017V8.9A8.907,8.907,0,0,0,59.12,0H8.9A8.907,8.907,0,0,0,0,8.9V43.039a8.907,8.907,0,0,0,8.9,8.9h3.941V66.948a1.588,1.588,0,0,0,2.733,1.1L31.058,51.937H33.2V75.986a8.955,8.955,0,0,0,8.944,8.944H70.394l15.589,16.219a1.588,1.588,0,0,0,2.733-1.1V84.93h3.977a8.955,8.955,0,0,0,8.944-8.944V41.624a8.955,8.955,0,0,0-8.945-8.944ZM30.381,48.761a1.588,1.588,0,0,0-1.145.488L16.015,63V50.349a1.588,1.588,0,0,0-1.588-1.588H8.9a5.728,5.728,0,0,1-5.721-5.721V8.9A5.728,5.728,0,0,1,8.9,3.176H59.12A5.728,5.728,0,0,1,64.841,8.9V32.68H42.146A8.955,8.955,0,0,0,33.2,41.624v7.136ZM98.46,75.986a5.775,5.775,0,0,1-5.768,5.768H87.127a1.588,1.588,0,0,0-1.588,1.588V96.1L72.215,82.242a1.588,1.588,0,0,0-1.145-.488H42.146a5.775,5.775,0,0,1-5.768-5.768V41.624a5.775,5.775,0,0,1,5.768-5.768H92.692a5.775,5.775,0,0,1,5.768,5.768ZM31.81,19.234a10.2,10.2,0,0,1-5.833,9.189,4.654,4.654,0,0,0-2.73,4.3v1.717a1.588,1.588,0,0,1-3.176,0V32.725a7.762,7.762,0,0,1,4.554-7.176,6.976,6.976,0,1,0-9.941-6.315,1.588,1.588,0,0,1-3.176,0,10.151,10.151,0,1,1,20.3,0ZM24.257,41.11a2.6,2.6,0,1,1-2.6-2.6A2.6,2.6,0,0,1,24.257,41.11Zm17.508-26.9a1.588,1.588,0,0,1,1.588-1.588h12.03a1.588,1.588,0,1,1,0,3.176H43.354a1.588,1.588,0,0,1-1.588-1.588Zm0,9.73a1.588,1.588,0,0,1,1.588-1.588h12.03a1.588,1.588,0,0,1,0,3.176H43.354a1.588,1.588,0,0,1-1.588-1.588ZM84.521,49.075a1.588,1.588,0,0,1-1.588,1.588H51.906a1.588,1.588,0,1,1,0-3.176H82.933A1.588,1.588,0,0,1,84.521,49.075Zm0,9.73a1.588,1.588,0,0,1-1.588,1.588H51.906a1.588,1.588,0,0,1,0-3.176H82.933A1.588,1.588,0,0,1,84.521,58.8Zm0,9.73a1.588,1.588,0,0,1-1.588,1.588H51.906a1.588,1.588,0,0,1,0-3.176H82.933A1.588,1.588,0,0,1,84.521,68.535Z" transform="translate(1799 6845)"/>
    <g id="g3582" class="cls-4" transform="translate(447 6896)">
      <g id="g3584" transform="translate(60.536 11.553)">
        <path id="path3586" class="cls-6" d="M0,0H0"/>
      </g>
      <g id="g3588">
        <g id="g3590" class="cls-7" transform="translate(0 0)">
          <g id="g3596" transform="translate(1.408 1.408)">
            <path id="path3598" class="cls-6" d="M-459.574-51.567A34.647,34.647,0,0,0-503.69-47.51h0a34.644,34.644,0,0,0-3.373,45.071l-2.667,9.952,9.952-2.666a34.644,34.644,0,0,0,45.071-3.373h0a34.648,34.648,0,0,0,4.056-44.117" transform="translate(513.835 57.655)"/>
          </g>
          <g id="g3600" transform="translate(23.578 14.315)">
            <path id="path3602" class="cls-6" d="M-25.992-107.311a3.019,3.019,0,0,1-2.921-3.929,12.632,12.632,0,0,1,3.306-5.224,12.608,12.608,0,0,1,9.37-3.5,12.619,12.619,0,0,1,8.314,3.781,12.62,12.62,0,0,1,3.781,8.314,12.737,12.737,0,0,1-6.986,11.95,4.79,4.79,0,0,0-2.681,4.281h0a3.019,3.019,0,0,1-3.019,3.019h-.012a3.019,3.019,0,0,1-3.019-3.019h0a10.809,10.809,0,0,1,6.011-9.685,6.679,6.679,0,0,0,3.662-6.268,6.957,6.957,0,0,0-6.329-6.33,6.605,6.605,0,0,0-4.914,1.834,6.619,6.619,0,0,0-1.71,2.669A3.059,3.059,0,0,1-25.992-107.311Z" transform="translate(29.06 119.981)"/>
          </g>
          <g id="g3604" transform="translate(32.781 51.724)">
            <path id="path3606" class="cls-6" d="M-51.243-25.622A3.025,3.025,0,0,1-54.268-22.6a3.025,3.025,0,0,1-3.025-3.025,3.025,3.025,0,0,1,3.025-3.025A3.025,3.025,0,0,1-51.243-25.622Z" transform="translate(57.293 28.647)"/>
          </g>
        </g>
      </g>
    </g>
  </g>
</svg>
