<svg xmlns="http://www.w3.org/2000/svg" width="33.647" height="54.898" viewBox="0 0 33.647 54.898">
  <defs>
    <style>
      .cls-1 {
        fill: #032de2;
      }
    </style>
  </defs>
  <g id="application_1_" data-name="application(1)" transform="translate(0)">
    <path id="Path_10574" data-name="Path 10574" class="cls-1" d="M28.335,50.471a2.66,2.66,0,0,1-2.656,2.656h-.885v-.885a2.66,2.66,0,0,0-2.656-2.656H7.969a2.66,2.66,0,0,0-2.656,2.656v.885H4.427a2.66,2.66,0,0,1-2.656-2.656V4.427A2.66,2.66,0,0,1,3.388,1.984L8.229,6.824a.882.882,0,0,0,.626.259h12.4a.882.882,0,0,0,.626-.259l4.841-4.841a2.66,2.66,0,0,1,1.617,2.444V15.053h1.771V4.427A4.433,4.433,0,0,0,25.678,0H4.427A4.433,4.433,0,0,0,0,4.427V50.471A4.433,4.433,0,0,0,4.427,54.9H25.678a4.433,4.433,0,0,0,4.427-4.427v-12.4H28.335ZM20.884,5.313H9.221L5.679,1.771H24.426ZM7.084,52.242a.886.886,0,0,1,.885-.885H22.137a.886.886,0,0,1,.885.885v.885H7.084Zm0,0"/>
    <path id="Path_10575" data-name="Path 10575" class="cls-1" d="M103.907,117.31a13.986,13.986,0,0,1-9.955-4.124l-.93-.93a.884.884,0,0,0-1.252,0l-.93.93a13.986,13.986,0,0,1-9.955,4.124A.884.884,0,0,0,80,118.2v1.052a27.61,27.61,0,0,0,11.893,22.7.883.883,0,0,0,1.007,0,27.61,27.61,0,0,0,11.893-22.7V118.2a.884.884,0,0,0-.885-.885Zm-.885,1.937A25.841,25.841,0,0,1,92.4,140.131a25.841,25.841,0,0,1-10.626-20.884v-.191a15.733,15.733,0,0,0,10.322-4.619l.3-.3.3.3a15.735,15.735,0,0,0,10.322,4.619Zm0,0" transform="translate(-71.145 -99.601)"/>
    <path id="Path_10576" data-name="Path 10576" class="cls-1" d="M145.771,171.542v1.771h-.885a.884.884,0,0,0-.885.885v7.084a.884.884,0,0,0,.885.885h8.855a.884.884,0,0,0,.885-.885V174.2a.884.884,0,0,0-.885-.885h-.885v-1.771a3.542,3.542,0,1,0-7.084,0Zm7.084,8.855h-7.084v-5.313h7.084Zm-1.771-8.855v1.771h-3.542v-1.771a1.771,1.771,0,1,1,3.542,0Zm0,0" transform="translate(-128.062 -149.405)"/>
    <path id="Path_10577" data-name="Path 10577" class="cls-1" d="M184,248h1.771v1.771H184Zm0,0" transform="translate(-163.634 -220.551)"/>
  </g>
</svg>
