<svg id="Page-1" xmlns="http://www.w3.org/2000/svg" width="55.045" height="55.045" viewBox="0 0 55.045 55.045">
  <defs>
    <style>
      .cls-1 {
        fill: #032de2;
      }
    </style>
  </defs>
  <g id="_060---Data-Storage" data-name="060---Data-Storage">
    <path id="Shape" class="cls-1" d="M32.11,48.623a.917.917,0,0,0-.917.917,3.67,3.67,0,0,1-3.67,3.67H5.5a3.67,3.67,0,0,1-3.67-3.67V5.5A3.67,3.67,0,0,1,5.5,1.835h.35L7.847,5.818a2.738,2.738,0,0,0,2.461,1.521H22.719A2.738,2.738,0,0,0,25.18,5.818l1.992-3.983h.35a3.67,3.67,0,0,1,3.67,3.67V7.339a.917.917,0,1,0,1.835,0V5.5a5.51,5.51,0,0,0-5.5-5.5H5.5A5.51,5.51,0,0,0,0,5.5V49.54a5.51,5.51,0,0,0,5.5,5.5H27.522a5.51,5.51,0,0,0,5.5-5.5A.917.917,0,0,0,32.11,48.623ZM23.539,5a.911.911,0,0,1-.82.507H10.308A.911.911,0,0,1,9.488,5L7.906,1.835H25.121Z"/>
    <path id="Shape-2" data-name="Shape" class="cls-1" d="M24.6,55.835A.917.917,0,1,0,24.6,54H9.917a.917.917,0,1,0,0,1.835Z" transform="translate(-0.743 -4.46)"/>
    <path id="Shape-3" data-name="Shape" class="cls-1" d="M50.2,11H24.513a5.51,5.51,0,0,0-5.5,5.5v5.871L8.966,27.732a1.835,1.835,0,0,0,0,3.235l10.043,5.354v5.871a5.51,5.51,0,0,0,5.5,5.5H50.2a5.51,5.51,0,0,0,5.5-5.5V16.5A5.51,5.51,0,0,0,50.2,11Zm3.67,31.192a3.67,3.67,0,0,1-3.67,3.67H24.513a3.67,3.67,0,0,1-3.67-3.67V35.77a.917.917,0,0,0-.485-.81L9.835,29.348l10.526-5.614a.917.917,0,0,0,.483-.808V16.5a3.67,3.67,0,0,1,3.67-3.67H50.2a3.67,3.67,0,0,1,3.67,3.67Z" transform="translate(-0.66 -0.908)"/>
    <path id="Shape-4" data-name="Shape" class="cls-1" d="M46.348,18H31.67A3.67,3.67,0,0,0,28,21.67V23.5a3.646,3.646,0,0,0,1.268,2.752A3.646,3.646,0,0,0,28,29.009v1.835A3.646,3.646,0,0,0,29.268,33.6,3.646,3.646,0,0,0,28,36.348v1.835a3.67,3.67,0,0,0,3.67,3.67H46.348a3.67,3.67,0,0,0,3.67-3.67V36.348A3.646,3.646,0,0,0,48.75,33.6a3.646,3.646,0,0,0,1.268-2.752V29.009a3.646,3.646,0,0,0-1.268-2.752A3.646,3.646,0,0,0,50.018,23.5V21.67A3.67,3.67,0,0,0,46.348,18Zm1.835,18.348v1.835a1.835,1.835,0,0,1-1.835,1.835H31.67a1.835,1.835,0,0,1-1.835-1.835V36.348a1.835,1.835,0,0,1,1.835-1.835H46.348A1.835,1.835,0,0,1,48.183,36.348Zm0-7.339v1.835a1.835,1.835,0,0,1-1.835,1.835H31.67a1.835,1.835,0,0,1-1.835-1.835V29.009a1.835,1.835,0,0,1,1.835-1.835H46.348A1.835,1.835,0,0,1,48.183,29.009ZM31.67,25.339A1.835,1.835,0,0,1,29.835,23.5V21.67a1.835,1.835,0,0,1,1.835-1.835H46.348a1.835,1.835,0,0,1,1.835,1.835V23.5a1.835,1.835,0,0,1-1.835,1.835Z" transform="translate(-2.312 -1.487)"/>
    <path id="Shape-5" data-name="Shape" class="cls-1" d="M34.752,22H32.917a.917.917,0,0,0,0,1.835h1.835a.917.917,0,0,0,0-1.835Z" transform="translate(-2.643 -1.817)"/>
    <path id="Shape-6" data-name="Shape" class="cls-1" d="M32.917,31.835h1.835a.917.917,0,1,0,0-1.835H32.917a.917.917,0,0,0,0,1.835Z" transform="translate(-2.643 -2.478)"/>
    <path id="Shape-7" data-name="Shape" class="cls-1" d="M32.917,39.835h1.835a.917.917,0,0,0,0-1.835H32.917a.917.917,0,0,0,0,1.835Z" transform="translate(-2.643 -3.138)"/>
  </g>
</svg>
