<svg xmlns="http://www.w3.org/2000/svg" width="161" height="117" viewBox="0 0 161 117">
  <defs>
    <style>
      .cls-1 {
        fill: #e5e5e5;
      }
    </style>
  </defs>
  <g id="Group_13778" data-name="Group 13778" transform="translate(-1446 -10306)">
    <circle id="Ellipse_1484" data-name="Ellipse 1484" class="cls-1" cx="3.5" cy="3.5" r="3.5" transform="translate(1446 10372)"/>
    <circle id="Ellipse_1508" data-name="Ellipse 1508" class="cls-1" cx="3.5" cy="3.5" r="3.5" transform="translate(1446 10350)"/>
    <circle id="Ellipse_1516" data-name="Ellipse 1516" class="cls-1" cx="3.5" cy="3.5" r="3.5" transform="translate(1446 10328)"/>
    <circle id="Ellipse_1524" data-name="Ellipse 1524" class="cls-1" cx="3.5" cy="3.5" r="3.5" transform="translate(1446 10306)"/>
    <circle id="Ellipse_1499" data-name="Ellipse 1499" class="cls-1" cx="3.5" cy="3.5" r="3.5" transform="translate(1446 10394)"/>
    <circle id="Ellipse_1507" data-name="Ellipse 1507" class="cls-1" cx="3.5" cy="3.5" r="3.5" transform="translate(1446 10416)"/>
    <circle id="Ellipse_1487" data-name="Ellipse 1487" class="cls-1" cx="3.5" cy="3.5" r="3.5" transform="translate(1490 10372)"/>
    <circle id="Ellipse_1509" data-name="Ellipse 1509" class="cls-1" cx="3.5" cy="3.5" r="3.5" transform="translate(1490 10350)"/>
    <circle id="Ellipse_1517" data-name="Ellipse 1517" class="cls-1" cx="3.5" cy="3.5" r="3.5" transform="translate(1490 10328)"/>
    <circle id="Ellipse_1525" data-name="Ellipse 1525" class="cls-1" cx="3.5" cy="3.5" r="3.5" transform="translate(1490 10306)"/>
    <circle id="Ellipse_1497" data-name="Ellipse 1497" class="cls-1" cx="3.5" cy="3.5" r="3.5" transform="translate(1490 10394)"/>
    <circle id="Ellipse_1505" data-name="Ellipse 1505" class="cls-1" cx="3.5" cy="3.5" r="3.5" transform="translate(1490 10416)"/>
    <circle id="Ellipse_1489" data-name="Ellipse 1489" class="cls-1" cx="3.5" cy="3.5" r="3.5" transform="translate(1534 10372)"/>
    <circle id="Ellipse_1512" data-name="Ellipse 1512" class="cls-1" cx="3.5" cy="3.5" r="3.5" transform="translate(1534 10350)"/>
    <circle id="Ellipse_1520" data-name="Ellipse 1520" class="cls-1" cx="3.5" cy="3.5" r="3.5" transform="translate(1534 10328)"/>
    <circle id="Ellipse_1528" data-name="Ellipse 1528" class="cls-1" cx="3.5" cy="3.5" r="3.5" transform="translate(1534 10306)"/>
    <circle id="Ellipse_1495" data-name="Ellipse 1495" class="cls-1" cx="3.5" cy="3.5" r="3.5" transform="translate(1534 10394)"/>
    <circle id="Ellipse_1503" data-name="Ellipse 1503" class="cls-1" cx="3.5" cy="3.5" r="3.5" transform="translate(1534 10416)"/>
    <circle id="Ellipse_1491" data-name="Ellipse 1491" class="cls-1" cx="3.5" cy="3.5" r="3.5" transform="translate(1578 10372)"/>
    <circle id="Ellipse_1514" data-name="Ellipse 1514" class="cls-1" cx="3.5" cy="3.5" r="3.5" transform="translate(1578 10350)"/>
    <circle id="Ellipse_1522" data-name="Ellipse 1522" class="cls-1" cx="3.5" cy="3.5" r="3.5" transform="translate(1578 10328)"/>
    <circle id="Ellipse_1530" data-name="Ellipse 1530" class="cls-1" cx="3.5" cy="3.5" r="3.5" transform="translate(1578 10306)"/>
    <circle id="Ellipse_1493" data-name="Ellipse 1493" class="cls-1" cx="3.5" cy="3.5" r="3.5" transform="translate(1578 10394)"/>
    <circle id="Ellipse_1501" data-name="Ellipse 1501" class="cls-1" cx="3.5" cy="3.5" r="3.5" transform="translate(1578 10416)"/>
    <circle id="Ellipse_1485" data-name="Ellipse 1485" class="cls-1" cx="3.5" cy="3.5" r="3.5" transform="translate(1468 10372)"/>
    <circle id="Ellipse_1510" data-name="Ellipse 1510" class="cls-1" cx="3.5" cy="3.5" r="3.5" transform="translate(1468 10350)"/>
    <circle id="Ellipse_1518" data-name="Ellipse 1518" class="cls-1" cx="3.5" cy="3.5" r="3.5" transform="translate(1468 10328)"/>
    <circle id="Ellipse_1526" data-name="Ellipse 1526" class="cls-1" cx="3.5" cy="3.5" r="3.5" transform="translate(1468 10306)"/>
    <circle id="Ellipse_1498" data-name="Ellipse 1498" class="cls-1" cx="3.5" cy="3.5" r="3.5" transform="translate(1468 10394)"/>
    <circle id="Ellipse_1506" data-name="Ellipse 1506" class="cls-1" cx="3.5" cy="3.5" r="3.5" transform="translate(1468 10416)"/>
    <circle id="Ellipse_1486" data-name="Ellipse 1486" class="cls-1" cx="3.5" cy="3.5" r="3.5" transform="translate(1512 10372)"/>
    <circle id="Ellipse_1511" data-name="Ellipse 1511" class="cls-1" cx="3.5" cy="3.5" r="3.5" transform="translate(1512 10350)"/>
    <circle id="Ellipse_1519" data-name="Ellipse 1519" class="cls-1" cx="3.5" cy="3.5" r="3.5" transform="translate(1512 10328)"/>
    <circle id="Ellipse_1527" data-name="Ellipse 1527" class="cls-1" cx="3.5" cy="3.5" r="3.5" transform="translate(1512 10306)"/>
    <circle id="Ellipse_1496" data-name="Ellipse 1496" class="cls-1" cx="3.5" cy="3.5" r="3.5" transform="translate(1512 10394)"/>
    <circle id="Ellipse_1504" data-name="Ellipse 1504" class="cls-1" cx="3.5" cy="3.5" r="3.5" transform="translate(1512 10416)"/>
    <circle id="Ellipse_1488" data-name="Ellipse 1488" class="cls-1" cx="3.5" cy="3.5" r="3.5" transform="translate(1556 10372)"/>
    <circle id="Ellipse_1513" data-name="Ellipse 1513" class="cls-1" cx="3.5" cy="3.5" r="3.5" transform="translate(1556 10350)"/>
    <circle id="Ellipse_1521" data-name="Ellipse 1521" class="cls-1" cx="3.5" cy="3.5" r="3.5" transform="translate(1556 10328)"/>
    <circle id="Ellipse_1529" data-name="Ellipse 1529" class="cls-1" cx="3.5" cy="3.5" r="3.5" transform="translate(1556 10306)"/>
    <circle id="Ellipse_1494" data-name="Ellipse 1494" class="cls-1" cx="3.5" cy="3.5" r="3.5" transform="translate(1556 10394)"/>
    <circle id="Ellipse_1502" data-name="Ellipse 1502" class="cls-1" cx="3.5" cy="3.5" r="3.5" transform="translate(1556 10416)"/>
    <circle id="Ellipse_1490" data-name="Ellipse 1490" class="cls-1" cx="3.5" cy="3.5" r="3.5" transform="translate(1600 10372)"/>
    <circle id="Ellipse_1515" data-name="Ellipse 1515" class="cls-1" cx="3.5" cy="3.5" r="3.5" transform="translate(1600 10350)"/>
    <circle id="Ellipse_1523" data-name="Ellipse 1523" class="cls-1" cx="3.5" cy="3.5" r="3.5" transform="translate(1600 10328)"/>
    <circle id="Ellipse_1531" data-name="Ellipse 1531" class="cls-1" cx="3.5" cy="3.5" r="3.5" transform="translate(1600 10306)"/>
    <circle id="Ellipse_1492" data-name="Ellipse 1492" class="cls-1" cx="3.5" cy="3.5" r="3.5" transform="translate(1600 10394)"/>
    <circle id="Ellipse_1500" data-name="Ellipse 1500" class="cls-1" cx="3.5" cy="3.5" r="3.5" transform="translate(1600 10416)"/>
  </g>
</svg>
