<svg xmlns="http://www.w3.org/2000/svg" width="50.042" height="47.945" viewBox="0 0 50.042 47.945">
  <defs>
    <style>
      .cls-1 {
        fill: #032de2;
      }
    </style>
  </defs>
  <g id="repair" transform="translate(0 -10.726)">
    <path id="Path_11278" data-name="Path 11278" class="cls-1" d="M186.2,41.676l-.328-2.844a.828.828,0,0,0-1.408-.491l-2.916,2.911-2.862-.4-.4-2.857,2.917-2.911a.826.826,0,0,0-.491-1.405l-2.853-.328a.82.82,0,0,0-.678.237l-3.67,3.663a.828.828,0,0,0-.242.609l.093,3.075-.175.175,0,0-9.738,9.719L158.6,55.662h0l-.079.079-3.08-.093a.837.837,0,0,0-.611.242l-3.667,3.66a.822.822,0,0,0-.24.682l.328,2.844a.828.828,0,0,0,1.408.491l2.916-2.911,2.862.4.4,2.856-2.916,2.911a.826.826,0,0,0,.491,1.405l2.853.327a.83.83,0,0,0,.094.005.82.82,0,0,0,.584-.242l3.67-3.663a.829.829,0,0,0,.242-.609l-.093-3.075.175-.175,0,0,9.738-9.719,4.845-4.835h0l.079-.079,3.08.093a.824.824,0,0,0,.611-.242l3.667-3.66a.822.822,0,0,0,.24-.681Zm-4.789,3.01-3.08-.093a.834.834,0,0,0-.611.242l-.306.305L162.425,60.1a.829.829,0,0,0-.239.606l.093,3.075-3.192,3.186-.977-.112,2.1-2.092a.828.828,0,0,0,.235-.7l-.533-3.77a.831.831,0,0,0-.7-.7l-3.775-.531a.831.831,0,0,0-.7.233l-2.1,2.092-.112-.975,3.192-3.186,3.08.093a.823.823,0,0,0,.611-.242l.306-.305L174.69,41.812a.828.828,0,0,0,.242-.609l-.093-3.075,3.192-3.186.977.112-2.1,2.092a.828.828,0,0,0-.235.7l.533,3.771a.831.831,0,0,0,.7.7l3.775.531a.832.832,0,0,0,.7-.233l2.1-2.092.112.975Z" transform="translate(-136.163 -20.406)"/>
    <path id="Path_11279" data-name="Path 11279" class="cls-1" d="M283.319,155.693l-9.806,9.787a.783.783,0,1,0,1.108,1.106l9.806-9.787a.783.783,0,0,0-1.108-1.106Z" transform="translate(-246.574 -130.591)"/>
    <path id="Path_11280" data-name="Path 11280" class="cls-1" d="M108.841,288.2a.783.783,0,0,0-.783.782v15.672a2.813,2.813,0,0,1-2.813,2.807H87.427a2.813,2.813,0,0,1-2.813-2.807V289.638a.783.783,0,1,0-1.567,0v15.017a4.38,4.38,0,0,0,4.379,4.371h17.818a4.38,4.38,0,0,0,4.379-4.37V288.982A.783.783,0,0,0,108.841,288.2Z" transform="translate(-74.93 -250.354)"/>
    <path id="Path_11281" data-name="Path 11281" class="cls-1" d="M83.831,19.626a.783.783,0,0,0,.783-.782V15.1a2.813,2.813,0,0,1,2.813-2.807h17.818a2.813,2.813,0,0,1,2.813,2.807v3.092a.783.783,0,1,0,1.567,0V15.1a4.38,4.38,0,0,0-4.379-4.371H87.427a4.38,4.38,0,0,0-4.379,4.37v3.748A.783.783,0,0,0,83.831,19.626Z" transform="translate(-74.931 0)"/>
    <path id="Path_11282" data-name="Path 11282" class="cls-1" d="M208.329,454.579a.782.782,0,0,0,0-1.564h-2.242a.782.782,0,0,0,0,1.564Z" transform="translate(-185.239 -399.061)"/>
    <path id="Path_11283" data-name="Path 11283" class="cls-1" d="M170.314,47.107a.782.782,0,0,0,0,1.564h9.235a.782.782,0,0,0,0-1.564Z" transform="translate(-152.962 -32.825)"/>
    <path id="Path_11284" data-name="Path 11284" class="cls-1" d="M9.427,124.452l1.126,1.245a1.156,1.156,0,0,0,1.237.318,9.224,9.224,0,0,0,1-.413,1.152,1.152,0,0,0,.65-1.1l-.086-1.675c.168-.14.331-.288.486-.443s.3-.317.444-.485l1.678.086a1.155,1.155,0,0,0,1.1-.649,9.178,9.178,0,0,0,.414-1,1.151,1.151,0,0,0-.318-1.234l-1.248-1.124a7.184,7.184,0,0,0,0-1.311l1.248-1.124a1.151,1.151,0,0,0,.318-1.234,9.206,9.206,0,0,0-.414-1,1.152,1.152,0,0,0-1.1-.649l-1.678.086c-.14-.168-.289-.33-.444-.485s-.318-.3-.486-.443l.086-1.675a1.152,1.152,0,0,0-.65-1.1,9.194,9.194,0,0,0-1-.413,1.155,1.155,0,0,0-1.236.318L9.427,110.2a7.249,7.249,0,0,0-1.314,0l-1.126-1.245a1.156,1.156,0,0,0-1.236-.318,9.211,9.211,0,0,0-1,.413,1.152,1.152,0,0,0-.65,1.1l.086,1.675c-.168.14-.331.288-.486.443s-.3.317-.444.485l-1.678-.086a1.154,1.154,0,0,0-1.1.649,9.124,9.124,0,0,0-.414,1,1.151,1.151,0,0,0,.318,1.234L1.63,116.67a7.185,7.185,0,0,0,0,1.311L.382,119.106a1.151,1.151,0,0,0-.318,1.234,9.138,9.138,0,0,0,.414,1,1.155,1.155,0,0,0,1.1.649l1.678-.086c.14.168.289.33.444.485s.318.3.486.443L4.1,124.5a1.152,1.152,0,0,0,.65,1.1,9.185,9.185,0,0,0,1,.413,1.156,1.156,0,0,0,1.237-.318l1.126-1.245A7.245,7.245,0,0,0,9.427,124.452Zm-1.339-1.575a1.157,1.157,0,0,0-1,.372l-1.082,1.2q-.166-.064-.33-.137l.082-1.608a1.153,1.153,0,0,0-.441-.967,5.687,5.687,0,0,1-.966-.964,1.157,1.157,0,0,0-.968-.44l-1.611.082q-.072-.163-.137-.33L2.836,119a1.153,1.153,0,0,0,.373-.994,5.609,5.609,0,0,1,0-1.362,1.153,1.153,0,0,0-.373-1l-1.2-1.08q.064-.166.137-.33l1.611.082a1.158,1.158,0,0,0,.969-.44,5.686,5.686,0,0,1,.966-.964,1.153,1.153,0,0,0,.441-.967l-.083-1.608q.164-.072.33-.137l1.081,1.2a1.157,1.157,0,0,0,1,.372,5.64,5.64,0,0,1,1.365,0,1.158,1.158,0,0,0,1-.372l1.082-1.2q.166.064.33.136l-.082,1.608a1.153,1.153,0,0,0,.441.967,5.681,5.681,0,0,1,.966.964,1.154,1.154,0,0,0,.968.44l1.611-.082q.072.163.137.33l-1.2,1.079a1.153,1.153,0,0,0-.373,1,5.619,5.619,0,0,1,0,1.362,1.153,1.153,0,0,0,.373,1l1.2,1.079q-.064.166-.137.33l-1.611-.082a1.158,1.158,0,0,0-.969.44,5.681,5.681,0,0,1-.966.964,1.153,1.153,0,0,0-.441.967l.082,1.608q-.164.072-.33.136l-1.082-1.2a1.157,1.157,0,0,0-1-.372,5.642,5.642,0,0,1-1.364,0Z" transform="translate(0 -88.284)"/>
    <path id="Path_11285" data-name="Path 11285" class="cls-1" d="M48.592,156.893a4.837,4.837,0,1,0-6.84,0,4.839,4.839,0,0,0,6.84,0Zm-5.75-5.738a3.279,3.279,0,1,1,0,4.633,3.279,3.279,0,0,1,0-4.633Z" transform="translate(-36.392 -124.429)"/>
  </g>
</svg>
