<svg xmlns="http://www.w3.org/2000/svg" width="51.391" height="51.391" viewBox="0 0 51.391 51.391">
  <defs>
    <style>
      .cls-1 {
        fill: #032de2;
      }
    </style>
  </defs>
  <g id="digital-transformation" transform="translate(-1 -1)">
    <path id="Path_11262" data-name="Path 11262" class="cls-1" d="M52.043,51.876l-5.8-4.144a.829.829,0,0,0-1.31.675v1.658H39.957V40.947a.829.829,0,0,0-.538-.777l-6.093-2.284V31.829A.829.829,0,0,0,32.5,31h-11.6a.829.829,0,0,0-.829.829v6.057L13.971,40.17a.829.829,0,0,0-.538.777v9.118H1.829A.829.829,0,0,0,1,50.893v3.316a.829.829,0,0,0,.829.829h43.1V56.7a.829.829,0,0,0,1.31.675l5.8-4.144a.829.829,0,0,0,0-1.349ZM33.326,39.656,38.3,41.521v8.543H33.326Zm-11.6-7h9.947V50.064H30.011V47.578a3.316,3.316,0,0,0-6.631,0v2.487H21.722Zm6.631,14.92v2.487H25.037V47.578a1.658,1.658,0,1,1,3.316,0ZM15.091,41.521l4.973-1.865V50.064H15.091Zm31.5,13.564v-.876a.829.829,0,0,0-.829-.829H2.658V51.722h43.1a.829.829,0,0,0,.829-.829v-.876l3.547,2.534Z" transform="translate(0 -5.134)"/>
    <path id="Path_11263" data-name="Path 11263" class="cls-1" d="M32.315,26.6V19.819a2.487,2.487,0,1,0-1.658,0V26.6Zm-.829-9.947a.829.829,0,1,1-.829.829A.829.829,0,0,1,31.487,16.656Z" transform="translate(-4.791 -2.394)"/>
    <path id="Path_11264" data-name="Path 11264" class="cls-1" d="M25.629,27.287V23.972a.829.829,0,0,0-.332-.663l-1.45-1.087a2.46,2.46,0,0,0,.124-.736,2.492,2.492,0,1,0-1.11,2.072l1.11.829v2.9Zm-4.144-4.973a.829.829,0,1,1,.829-.829A.829.829,0,0,1,21.484,22.314Z" transform="translate(-3.078 -3.079)"/>
    <path id="Path_11265" data-name="Path 11265" class="cls-1" d="M37,23.942v3.316h1.658v-2.9l1.11-.829a2.585,2.585,0,1,0-.986-1.332l-1.45,1.083a.829.829,0,0,0-.332.663Zm4.144-3.316a.829.829,0,1,1-.829.829A.829.829,0,0,1,41.144,20.627Z" transform="translate(-6.16 -3.049)"/>
    <path id="Path_11266" data-name="Path 11266" class="cls-1" d="M28.5,35h1.658v1.658H28.5Z" transform="translate(-4.706 -5.818)"/>
    <path id="Path_11267" data-name="Path 11267" class="cls-1" d="M33.5,35h1.658v1.658H33.5Z" transform="translate(-5.561 -5.818)"/>
    <path id="Path_11268" data-name="Path 11268" class="cls-1" d="M28.5,39h1.658v1.658H28.5Z" transform="translate(-4.706 -6.503)"/>
    <path id="Path_11269" data-name="Path 11269" class="cls-1" d="M33.5,39h1.658v1.658H33.5Z" transform="translate(-5.561 -6.503)"/>
    <path id="Path_11270" data-name="Path 11270" class="cls-1" d="M28.5,43h1.658v1.658H28.5Z" transform="translate(-4.706 -7.187)"/>
    <path id="Path_11271" data-name="Path 11271" class="cls-1" d="M33.5,43h1.658v1.658H33.5Z" transform="translate(-5.561 -7.187)"/>
    <path id="Path_11272" data-name="Path 11272" class="cls-1" d="M2.633,23.206l1.947.647A22.155,22.155,0,0,0,4.4,26.7a22.4,22.4,0,0,0,.181,2.851l-1.946.637a1.665,1.665,0,0,0-1.062,2.09L3.113,37a1.658,1.658,0,0,0,2.092,1.078l1.947-.633A22.326,22.326,0,0,0,9.992,41.5l1.248-1.091A20.747,20.747,0,0,1,8.6,36.634a1.679,1.679,0,0,0-1.963-.78l-1.945.63L3.151,31.76,5.1,31.122a1.652,1.652,0,0,0,1.126-1.8,20.709,20.709,0,0,1,0-5.263A1.649,1.649,0,0,0,5.1,22.269l-1.948-.638L4.689,16.9l1.949.639a1.685,1.685,0,0,0,1.972-.788A20.4,20.4,0,0,1,11.7,12.487a1.651,1.651,0,0,0,.142-2.116l-1.2-1.658,4.023-2.924,1.208,1.666a1.67,1.67,0,0,0,2.059.51,20.2,20.2,0,0,1,5-1.632,1.664,1.664,0,0,0,1.364-1.627V2.658h4.973V4.705a1.664,1.664,0,0,0,1.365,1.627,20.249,20.249,0,0,1,5.017,1.639,1.667,1.667,0,0,0,2.05-.525L38.9,5.788l4.014,2.92-1.2,1.649a1.653,1.653,0,0,0,.137,2.124,20.478,20.478,0,0,1,3.1,4.278,1.681,1.681,0,0,0,1.964.773l1.945-.63,1.541,4.725-1.945.637a1.652,1.652,0,0,0-1.13,1.8,20.709,20.709,0,0,1,0,5.263,1.649,1.649,0,0,0,1.129,1.792l1.948.638L48.87,36.49l-1.95-.637a1.686,1.686,0,0,0-1.973.788,20.677,20.677,0,0,1-2.63,3.761l1.248,1.091a22.19,22.19,0,0,0,2.84-4.068l1.953.64a1.658,1.658,0,0,0,2.085-1.071l1.543-4.725a1.662,1.662,0,0,0-1.062-2.085l-1.947-.647a22.156,22.156,0,0,0,.181-2.843,22.405,22.405,0,0,0-.181-2.851l1.946-.637a1.665,1.665,0,0,0,1.062-2.09L50.445,16.4a1.658,1.658,0,0,0-2.092-1.073l-1.947.632a22.085,22.085,0,0,0-3.348-4.613l1.2-1.658a1.658,1.658,0,0,0-.364-2.321L39.875,4.451a1.653,1.653,0,0,0-1.243-.3,1.635,1.635,0,0,0-1.078.663L36.345,6.471a21.676,21.676,0,0,0-5.422-1.766V2.658A1.658,1.658,0,0,0,29.266,1H24.293a1.658,1.658,0,0,0-1.658,1.658L22.624,4.7a21.844,21.844,0,0,0-5.418,1.768l-1.2-1.649a1.654,1.654,0,0,0-2.321-.372L9.662,7.369A1.658,1.658,0,0,0,9.3,9.684l1.2,1.663a21.975,21.975,0,0,0-3.342,4.614L5.2,15.321a1.658,1.658,0,0,0-2.085,1.071L1.571,21.117a1.662,1.662,0,0,0,1.062,2.089Z" transform="translate(-0.084)"/>
    <path id="Path_11273" data-name="Path 11273" class="cls-1" d="M45.168,35.01A18.236,18.236,0,1,0,10,28.235a18.057,18.057,0,0,0,1.3,6.774l1.538-.619a16.389,16.389,0,0,1-1.184-6.155,16.578,16.578,0,0,1,33.155,0,16.389,16.389,0,0,1-1.184,6.155Z" transform="translate(-1.54 -1.54)"/>
  </g>
</svg>
