<svg xmlns="http://www.w3.org/2000/svg" width="50.439" height="50.439" viewBox="0 0 50.439 50.439">
  <defs>
    <style>
      .cls-1 {
        fill: #032de2;
      }
    </style>
  </defs>
  <g id="coding_6_" data-name="coding(6)" transform="translate(-1 -1)">
    <path id="Path_11274" data-name="Path 11274" class="cls-1" d="M44.931,36.8V33.542a4.073,4.073,0,0,0-4.068-4.068H34.015a22.931,22.931,0,0,0,1.813-4.366l3.091-2.474a3.005,3.005,0,0,0-1.78-5.352L38.952,12.3A8.42,8.42,0,0,0,31.039,1H24.132A27.551,27.551,0,0,0,9.518,5.191a.814.814,0,0,0,.174,1.464l1.961.651a2.089,2.089,0,0,1,1.279,2.757,3.716,3.716,0,0,0,.126,3.042l2.1,4.191a3,3,0,0,0-1.634,5.338l3.091,2.474a22.931,22.931,0,0,0,1.811,4.366H11.576a4.073,4.073,0,0,0-4.068,4.068V36.8A10.591,10.591,0,0,0,1,46.558v4.068a.814.814,0,0,0,.814.814H50.626a.814.814,0,0,0,.814-.814V46.558A10.591,10.591,0,0,0,44.931,36.8Zm-12.2-19.53H27.847a.814.814,0,0,0-.814.814V18.9H25.406v-.814a.814.814,0,0,0-.814-.814H17.271V16.079l5.078-3.385a6.634,6.634,0,0,1,3.692-1.118,8.308,8.308,0,0,0,5.173-1.815L32.543,8.7l1.4,2.094a7.3,7.3,0,0,1,1.23,4.061v2.418ZM31.915,18.9v2.441a.814.814,0,0,1-.814.814H29.474a.814.814,0,0,1-.814-.814V18.9Zm-8.135,0v2.441a.814.814,0,0,1-.814.814H21.338a.814.814,0,0,1-.814-.814V18.9Zm14.644,1.383a1.378,1.378,0,0,1-.519,1.08l-1.475,1.18a22.894,22.894,0,0,0,.354-3.643h.257A1.383,1.383,0,0,1,38.423,20.281ZM14.442,10.668a3.716,3.716,0,0,0-2.274-4.9l-.249-.081A25.922,25.922,0,0,1,24.132,2.627h6.907a6.793,6.793,0,0,1,6.384,9.112l-.707,1.944a8.921,8.921,0,0,0-1.424-3.8L33.4,7.054A.814.814,0,0,0,32.22,6.87L30.2,8.491a6.683,6.683,0,0,1-4.157,1.458,8.259,8.259,0,0,0-4.595,1.391l-5.44,3.627a.807.807,0,0,0-.138.119l-1.354-2.708A2.088,2.088,0,0,1,14.442,10.668Zm.094,10.695A1.383,1.383,0,0,1,15.4,18.9h.255a22.894,22.894,0,0,0,.354,3.645ZM17.284,18.9H18.9v2.441a2.441,2.441,0,0,0,2.441,2.441h1.627a2.441,2.441,0,0,0,2.441-2.441v-.814h1.627v.814a2.441,2.441,0,0,0,2.441,2.441H31.1a2.441,2.441,0,0,0,2.441-2.441V18.9h1.614a21.3,21.3,0,0,1-3.019,10.576H20.3A21.3,21.3,0,0,1,17.284,18.9ZM11.576,31.1H40.863A2.441,2.441,0,0,1,43.3,33.542V49.812H9.135V33.542A2.441,2.441,0,0,1,11.576,31.1ZM2.627,46.558a8.962,8.962,0,0,1,4.881-7.967V49.812H2.627Zm47.185,3.254H44.931V38.591a8.963,8.963,0,0,1,4.881,7.967Z"/>
    <path id="Path_11275" data-name="Path 11275" class="cls-1" d="M31.254,56.508A3.254,3.254,0,1,0,28,53.254,3.254,3.254,0,0,0,31.254,56.508Zm0-4.881a1.627,1.627,0,1,1-1.627,1.627A1.627,1.627,0,0,1,31.254,51.627Z" transform="translate(-5.034 -9.137)"/>
    <path id="Path_11276" data-name="Path 11276" class="cls-1" d="M24.493,46.952l1.15-1.15-2.679-2.679,2.679-2.679-1.15-1.15-3.254,3.254a.814.814,0,0,0,0,1.15Z" transform="translate(-3.729 -7.14)"/>
    <path id="Path_11277" data-name="Path 11277" class="cls-1" d="M38.443,46.952,41.7,43.7a.814.814,0,0,0,0-1.15l-3.254-3.254-1.15,1.15,2.679,2.679L37.293,45.8Z" transform="translate(-6.767 -7.14)"/>
    <rect id="Rectangle_3555" data-name="Rectangle 3555" class="cls-1" width="8.135" height="1.627" transform="matrix(0.6, -0.8, 0.8, 0.6, 23.127, 38.747)"/>
  </g>
</svg>
