<svg xmlns="http://www.w3.org/2000/svg" width="50.553" height="45.316" viewBox="0 0 50.553 45.316">
  <defs>
    <style>
      .cls-1 {
        fill: #032de2;
      }
    </style>
  </defs>
  <path id="security-system" class="cls-1" d="M37.911,51.142H36.606v-2.39a5.137,5.137,0,1,0-10.266,0v2.39H25.035a1.191,1.191,0,0,0-1.19,1.19v8.789a1.191,1.191,0,0,0,1.19,1.19H37.911a1.191,1.191,0,0,0,1.19-1.19V52.332a1.191,1.191,0,0,0-1.19-1.19Zm-10.154-2.39a3.722,3.722,0,1,1,7.432,0v2.39H27.758Zm9.927,12.142H25.263V52.558H37.685ZM47.361,49.78,42.467,41.3a.708.708,0,0,0-.409-.324A36.419,36.419,0,0,0,21,41.028a.708.708,0,0,0-.406.323l-5,8.665a.708.708,0,0,0-.08.5,35.783,35.783,0,0,0,5.839,13.315,36.845,36.845,0,0,0,9.709,9.382.708.708,0,0,0,.779,0,36.839,36.839,0,0,0,9.774-9.474,35.768,35.768,0,0,0,5.826-13.464.708.708,0,0,0-.08-.5Zm-6.9,13.145a35.422,35.422,0,0,1-9.005,8.845,35.426,35.426,0,0,1-8.943-8.757,34.375,34.375,0,0,1-5.553-12.526L21.683,42.3a35.011,35.011,0,0,1,19.7-.045l4.617,8a34.363,34.363,0,0,1-5.542,12.671ZM52.579,53.86a2.138,2.138,0,1,0,0-1.417H50.491q.34-1.389.583-2.812a.708.708,0,0,0-.085-.473l-2.253-3.9h3a.708.708,0,0,0,.5-.207l1.5-1.5a2.143,2.143,0,1,0-1.038-.966L51.441,43.84H47.918l-2.856-4.946L48.8,35.156h1.021a2.136,2.136,0,1,0-.172-1.417H48.507a.708.708,0,0,0-.5.207l-4.022,4.022A39.8,39.8,0,0,0,19,38.045l-4.078-4.078a.708.708,0,0,0-.5-.207H13.282a2.141,2.141,0,1,0-.172,1.417h1.021l3.832,3.832-2.809,4.866v-.013H11.491L10.229,42.6a2.141,2.141,0,1,0-1.038.966l1.5,1.5a.708.708,0,0,0,.5.208h3.146l-2.384,4.13a.708.708,0,0,0-.084.477q.23,1.3.544,2.58H10.353a2.138,2.138,0,1,0,0,1.417H12.8a38.949,38.949,0,0,0,2.1,5.653H11.2a.708.708,0,0,0-.5.207l-1.5,1.5a2.143,2.143,0,1,0,1.038.966l1.261-1.261h4.091a39.873,39.873,0,0,0,2.954,4.875q.381.537.78,1.062H15.129a2.9,2.9,0,0,0-2.894,2.894v3.14a2.138,2.138,0,1,0,1.417,0V69.781A1.479,1.479,0,0,1,15.129,68.3h5.315A40.124,40.124,0,0,0,31.1,77.29a.708.708,0,0,0,.709,0,40.118,40.118,0,0,0,10.671-9.006H47.8a1.479,1.479,0,0,1,1.477,1.477V72.9a2.138,2.138,0,1,0,1.417,0v-3.14A2.9,2.9,0,0,0,47.8,66.868H43.6q.428-.564.836-1.143a39.894,39.894,0,0,0,2.894-4.794h4.108L52.7,62.192a2.141,2.141,0,1,0,1.038-.966l-1.5-1.5a.708.708,0,0,0-.5-.207H48.022a38.94,38.94,0,0,0,2.094-5.654Zm2.015-1.43a.722.722,0,1,1-.722.722A.722.722,0,0,1,54.595,52.431Zm0-11.566a.722.722,0,1,1-.722.722.722.722,0,0,1,.722-.722Zm-2.86-7.378a.722.722,0,1,1-.722.722.722.722,0,0,1,.722-.722ZM11.2,34.949a.722.722,0,1,1,.722-.721A.722.722,0,0,1,11.2,34.949ZM7.615,41.606a.722.722,0,1,1,.722.722.722.722,0,0,1-.722-.722Zm.722,12.288a.722.722,0,1,1,.722-.722.722.722,0,0,1-.722.722Zm0,10.033a.722.722,0,1,1,.722-.722.722.722,0,0,1-.722.722Zm4.606,11.732a.722.722,0,1,1,.722-.722A.722.722,0,0,1,12.943,75.658Zm37.047-.02a.722.722,0,1,1,.722-.722.722.722,0,0,1-.722.722Zm5.327-12.453a.722.722,0,1,1-.722-.722.722.722,0,0,1,.722.722ZM31.452,75.856A38.152,38.152,0,0,1,13.316,49.89l6.047-10.473A38.421,38.421,0,0,1,43.7,39.364l5.936,10.281A38.121,38.121,0,0,1,31.452,75.856Z" transform="translate(-6.189 -32.069)"/>
</svg>
