<svg xmlns="http://www.w3.org/2000/svg" viewBox="0 0 496 496"><title>Asset 1</title><path d="M120,208H376v16H120Z" style="fill:#fff"/><path d="M272,240H376v16H272Z" style="fill:#fff"/><path d="M120,240H224v16H120Z" style="fill:#fff"/><path d="M272,176H376v16H272Z" style="fill:#fff"/><path d="M120,176H224v16H120Z" style="fill:#fff"/><path d="M120,144H376v16H120Z" style="fill:#fff"/><path d="M424,185.37V144a48.05,48.05,0,0,0-48-48v16a32,32,0,0,1,32,32v41.37A62.15,62.15,0,0,0,421.32,224,62.15,62.15,0,0,0,408,262.63V304a32,32,0,0,1-32,32v16a48.05,48.05,0,0,0,48-48V262.63a46.31,46.31,0,0,1,13.66-33l5.65-5.66-5.65-5.66A46.29,46.29,0,0,1,424,185.37Z" style="fill:#fff"/><path d="M88,304V262.63A62.15,62.15,0,0,0,74.68,224,62.15,62.15,0,0,0,88,185.37V144a32,32,0,0,1,32-32V96a48.05,48.05,0,0,0-48,48v41.37a46.31,46.31,0,0,1-13.66,33L52.69,224l5.65,5.66a46.29,46.29,0,0,1,13.66,33V304a48.05,48.05,0,0,0,48,48V336A32,32,0,0,1,88,304Z" style="fill:#fff"/><path d="M248,352a32,32,0,1,0,32,32A32,32,0,0,0,248,352Zm0,48a16,16,0,1,1,16-16A16,16,0,0,1,248,400Z" style="fill:#fff"/><path d="M248,320a64.13,64.13,0,0,0-30.46,7.7l7.63,14.07a48,48,0,0,1,65.06,65.06l14.07,7.63A64,64,0,0,0,248,320Z" style="fill:#fff"/><path d="M248,432a48,48,0,0,1-42.23-70.83l-14.07-7.63a64,64,0,0,0,86.76,86.76l-7.63-14.07A48.09,48.09,0,0,1,248,432Z" style="fill:#fff"/><path d="M496,24A24,24,0,0,0,472,0H24A24,24,0,0,0,0,24V392H136v14.25l20,5a96.34,96.34,0,0,0,7.68,18.49l-10.64,17.71,31.46,31.46,17.71-10.63a94.87,94.87,0,0,0,18.5,7.67l5,20h44.5l5-20a96.34,96.34,0,0,0,18.49-7.68l17.71,10.64,31.46-31.46-10.63-17.71a94.87,94.87,0,0,0,7.67-18.5l20-5V392H496ZM24,16H472a8,8,0,0,1,8,8V64H16V24A8,8,0,0,1,24,16ZM344,393.75l-17.17,4.3-1.13,4.71a79.75,79.75,0,0,1-9.5,22.9l-2.54,4.13L322.79,445,309,458.78l-15.19-9.12-4.14,2.53a79.58,79.58,0,0,1-22.89,9.5l-4.72,1.13L257.75,480h-19.5L234,462.83l-4.71-1.13a79.75,79.75,0,0,1-22.9-9.5l-4.13-2.54L187,458.79,173.22,445l9.12-15.19-2.53-4.14a79.58,79.58,0,0,1-9.5-22.89l-1.13-4.72L152,393.75v-19.5l17.17-4.3,1.13-4.71a79.75,79.75,0,0,1,9.5-22.9l2.54-4.13L173.21,323l13.8-13.8,15.19,9.12,4.14-2.53a79.58,79.58,0,0,1,22.89-9.5l4.72-1.13,4.3-17.18h19.5l4.3,17.17,4.71,1.13a79.75,79.75,0,0,1,22.9,9.5l4.13,2.54L309,309.21l13.8,13.8-9.12,15.19,2.53,4.14a79.58,79.58,0,0,1,9.5,22.89l1.13,4.72,17.18,4.3ZM360,376V361.75l-20-5a96.34,96.34,0,0,0-7.68-18.49l10.64-17.71-31.46-31.46-17.71,10.63a94.87,94.87,0,0,0-18.5-7.67l-5-20h-44.5l-5,20a96.34,96.34,0,0,0-18.49,7.68l-17.71-10.64-31.46,31.46,10.63,17.71a94.87,94.87,0,0,0-7.67,18.5l-20,5V376H16V80H480V376Z" style="fill:#fff"/><path d="M32,32H48V48H32Z" style="fill:#fff"/><path d="M64,32H80V48H64Z" style="fill:#fff"/><path d="M96,32h16V48H96Z" style="fill:#fff"/></svg>