<svg xmlns="http://www.w3.org/2000/svg" viewBox="0 0 498 498"><title>Asset 3</title><path d="M491.89,286.77A8,8,0,0,0,498,279V219a8,8,0,0,0-6.11-7.77l-25.45-6.18-4.21-1-1-4.22a215.46,215.46,0,0,0-27.4-66.25l-2.27-3.63,2.2-3.68,13-21.63a8,8,0,0,0-1.2-9.77L403.15,52.42a8,8,0,0,0-9.77-1.2l-21.63,13-3.68,2.2-3.63-2.27a215.22,215.22,0,0,0-66.25-27.4l-4.22-1-1-4.21L286.77,6.11A8,8,0,0,0,279,0H219a8,8,0,0,0-7.77,6.11l-6.18,25.45-1,4.21-4.22,1a215.46,215.46,0,0,0-66.25,27.4l-3.63,2.27-3.68-2.2-21.63-13a8,8,0,0,0-9.77,1.2L52.42,94.85a8,8,0,0,0-1.2,9.77l13,21.63,2.2,3.68-2.27,3.63a215.22,215.22,0,0,0-27.4,66.25l-1,4.22-4.2,1L6.11,211.23A8,8,0,0,0,0,219v60a8,8,0,0,0,6.11,7.77L31.56,293l4.2,1,1,4.22a215.46,215.46,0,0,0,27.4,66.25l2.27,3.63-2.2,3.68-13,21.63a8,8,0,0,0,1.2,9.77l42.43,42.43a8,8,0,0,0,9.77,1.2l21.63-13,3.67-2.2,3.64,2.27a215.42,215.42,0,0,0,66.25,27.4l4.22,1,1,4.21,6.18,25.45A8,8,0,0,0,219,498h60a8,8,0,0,0,7.77-6.11L293,466.44l1-4.21,4.22-1a215.32,215.32,0,0,0,66.25-27.4l3.63-2.27,3.68,2.2,21.63,13a8,8,0,0,0,9.77-1.2l42.43-42.43a8,8,0,0,0,1.2-9.77l-13-21.63-2.2-3.68,2.27-3.63a215.56,215.56,0,0,0,27.4-66.25l1-4.22,4.21-1Zm-38.45-7.13a8,8,0,0,0-6,6.32,199.62,199.62,0,0,1-31.95,77.3,8,8,0,0,0-.27,8.65L427,391.56l2.82,4.69L426,400.12,400.12,426l-3.87,3.86L391.57,427l-19.66-11.79a8,8,0,0,0-8.65.27A199.56,199.56,0,0,1,286,447.46a8,8,0,0,0-6.32,6L274,476.65l-1.3,5.35H225.29l-1.3-5.35-5.63-23.21a8,8,0,0,0-6.32-6,199.73,199.73,0,0,1-77.3-32,8,8,0,0,0-8.65-.27L106.43,427l-4.68,2.82L97.88,426,72,400.12l-3.87-3.87L71,391.57l11.79-19.66a8,8,0,0,0-.27-8.65A199.56,199.56,0,0,1,50.54,286a8,8,0,0,0-6-6.31L21.35,274,16,272.71V225.29l5.35-1.3,23.21-5.63a8,8,0,0,0,6-6.32,199.62,199.62,0,0,1,31.95-77.3,8,8,0,0,0,.27-8.65L71,106.43l-2.82-4.68L72,97.88,97.88,72l3.87-3.87L106.43,71l19.66,11.79a8.06,8.06,0,0,0,4.12,1.14,8,8,0,0,0,4.53-1.41A199.56,199.56,0,0,1,212,50.54a8,8,0,0,0,6.32-6L224,21.35l1.3-5.35h47.42l1.3,5.35,5.63,23.21a8,8,0,0,0,6.32,6,199.73,199.73,0,0,1,77.3,32,8,8,0,0,0,8.65.27L391.57,71l4.68-2.82L400.12,72,426,97.88l3.87,3.87L427,106.43l-11.79,19.66a8,8,0,0,0,.27,8.65A199.56,199.56,0,0,1,447.46,212a8,8,0,0,0,6,6.32L476.65,224l5.35,1.3v47.42l-5.35,1.3Z" style="fill:#fff"/><path d="M249,91C161.88,91,91,161.88,91,249s70.88,158,158,158,158-70.88,158-158S336.12,91,249,91Zm0,300c-78.3,0-142-63.7-142-142s63.7-142,142-142,142,63.7,142,142S327.3,391,249,391Z" style="fill:#fff"/><path d="M234,297.69l-4.95-4.95-49.39-49.4a8,8,0,0,0-11.32,11.32l60,60a8,8,0,0,0,11.32,0l90-90a8,8,0,0,0-11.32-11.32L239,292.74Z" style="fill:#fff"/></svg>