<svg xmlns="http://www.w3.org/2000/svg" viewBox="0 0 480 432.02"><title>Asset 2</title><rect x="136" y="384.02" width="16" height="16" style="fill:#fff"/><rect x="168" y="384.02" width="16" height="16" style="fill:#fff"/><rect x="136" y="288.02" width="16" height="16" style="fill:#fff"/><rect x="168" y="288.02" width="16" height="16" style="fill:#fff"/><path d="M376,96a103.35,103.35,0,0,0-13.84.93,135.94,135.94,0,0,0-266,31.45Q92.12,128,88,128a88,88,0,0,0,0,176h16v24a8,8,0,0,0,8,8h16v16H112a8,8,0,0,0-8,8v64a8,8,0,0,0,8,8H368a8,8,0,0,0,8-8V360a8,8,0,0,0-8-8H352V336h16a8,8,0,0,0,8-8V304a104,104,0,1,0,0-208ZM360,368v48H120V368ZM144,352V336H336v16Zm216-32H120V272H360Zm34-33.87A87.62,87.62,0,0,1,376,288V264a8,8,0,0,0-8-8H288V184h73.47a24,24,0,1,0,0-16H280a8,8,0,0,0-8,8v80H232V104h33.47a24,24,0,1,0,0-16H224a8,8,0,0,0-8,8V256H176V200a8,8,0,0,0-8-8H126.53a24,24,0,1,0,0,16H160v48H112a8,8,0,0,0-8,8v24H88a72,72,0,0,1,0-144,72.86,72.86,0,0,1,14.5,1.46,8,8,0,0,0,9.58-8c0-.16-.07-1.34-.08-1.5a119.94,119.94,0,0,1,236.55-28.11,8,8,0,0,0,9.41,6,88,88,0,0,1,36,172.27ZM376,176a8,8,0,1,1,8,8A8,8,0,0,1,376,176ZM280,96a8,8,0,1,1,8,8A8,8,0,0,1,280,96ZM112,200a8,8,0,1,1-8-8A8,8,0,0,1,112,200Z" style="fill:#fff"/></svg>